<svg xmlns="http://www.w3.org/2000/svg" viewBox="0 0 43.06 42.09"><defs><style>.a{fill:#fff;}.b{fill:#231f20;}</style></defs><title>add page</title><path class="a" d="M25.8,5.82H24.13V5a2.59,2.59,0,0,0-1.8-2.46A2.33,2.33,0,0,0,20,.37H2.71A2.34,2.34,0,0,0,.37,2.71v23.5a2.34,2.34,0,0,0,1.84,2.28,2.6,2.6,0,0,0,2.54,2.06H6.64v.63A2.82,2.82,0,0,0,9.46,34H25.8a2.82,2.82,0,0,0,2.82-2.82V8.64A2.82,2.82,0,0,0,25.8,5.82Z"/><rect class="b" x="10.49" y="12.12" width="14.28" height="0.73"/><rect class="b" x="10.49" y="17.11" width="14.28" height="0.73"/><rect class="b" x="10.49" y="23.19" width="14.28" height="0.73"/><rect class="b" x="10.49" y="25.68" width="14.28" height="0.73"/><rect class="b" x="10.49" y="14.61" width="14.28" height="0.73"/><path class="b" d="M26.77,5.45H24.5V4.08a2.07,2.07,0,0,0-1.78-2V1.91A1.91,1.91,0,0,0,20.81,0H1.91A1.91,1.91,0,0,0,0,1.91V27A1.9,1.9,0,0,0,1.79,28.9a2.08,2.08,0,0,0,2.07,2H6.27v1.23a2.22,2.22,0,0,0,2.22,2.22H26.77A2.22,2.22,0,0,0,29,32.14V7.67A2.22,2.22,0,0,0,26.77,5.45Zm-25-1.37V28.16A1.16,1.16,0,0,1,.73,27V1.91A1.17,1.17,0,0,1,1.91.73H20.81A1.17,1.17,0,0,1,22,1.91V2H3.86A2.08,2.08,0,0,0,1.78,4.08ZM6.27,7.67V30.18H3.86a1.34,1.34,0,0,1-1.33-1.27l0-24.84A1.35,1.35,0,0,1,3.86,2.73l18.86.06a1.33,1.33,0,0,1,1,1.28V5.45H8.49A2.22,2.22,0,0,0,6.27,7.67Zm22,24.47a1.49,1.49,0,0,1-1.49,1.49H8.49A1.49,1.49,0,0,1,7,32.14V7.67A1.49,1.49,0,0,1,8.49,6.18H26.77a1.49,1.49,0,0,1,1.49,1.49Z"/><circle class="a" cx="28.4" cy="27.43" r="13.91"/><path class="b" d="M28.4,42.09A14.66,14.66,0,1,1,43.06,27.43,14.68,14.68,0,0,1,28.4,42.09Zm0-27.82A13.16,13.16,0,1,0,41.56,27.43,13.17,13.17,0,0,0,28.4,14.27Z"/><path class="b" d="M36.93,25.47H30.36V18.9a.87.87,0,0,0-.87-.87H27.32a.87.87,0,0,0-.87.87v6.57H19.88a.87.87,0,0,0-.87.87v2.17a.87.87,0,0,0,.87.87h6.57v6.57a.87.87,0,0,0,.87.87h2.17a.87.87,0,0,0,.87-.87V29.38h6.57a.87.87,0,0,0,.87-.87V26.34A.87.87,0,0,0,36.93,25.47Z"/></svg>