<svg xmlns="http://www.w3.org/2000/svg" viewBox="14.4 12.7 42.4 41.4"><defs><style>.a{fill:#fff;}.b{fill:#231f20;}</style></defs><circle class="a" cx="28.4" cy="27.43" r="13.91"/><path class="b" d="M28.4,42.09A14.66,14.66,0,1,1,43.06,27.43,14.68,14.68,0,0,1,28.4,42.09Zm0-27.82A13.16,13.16,0,1,0,41.56,27.43,13.17,13.17,0,0,0,28.4,14.27Z"/><path class="b" d="M36.93,25.47H30.36V18.9a.87.87,0,0,0-.87-.87H27.32a.87.87,0,0,0-.87.87v6.57H19.88a.87.87,0,0,0-.87.87v2.17a.87.87,0,0,0,.87.87h6.57v6.57a.87.87,0,0,0,.87.87h2.17a.87.87,0,0,0,.87-.87V29.38h6.57a.87.87,0,0,0,.87-.87V26.34A.87.87,0,0,0,36.93,25.47Z"/></svg>
