<svg xmlns="http://www.w3.org/2000/svg" viewBox="0 0 60.35 25.44"><defs><style>.a{fill:#4f4f56;}.b{fill:#fff;}</style></defs><title>cancel</title><rect class="a" width="60.35" height="25.44" rx="12.72" ry="12.72"/><path class="b" d="M14.41,10.66a1.21,1.21,0,0,0-1.06.56A2.68,2.68,0,0,0,13,12.75q0,2,1.55,2a3.17,3.17,0,0,0,.91-.13,9.11,9.11,0,0,0,.88-.31v1.61a4.88,4.88,0,0,1-2,.39,3.15,3.15,0,0,1-2.44-.92A3.81,3.81,0,0,1,11,12.74a4.26,4.26,0,0,1,.41-1.92,3,3,0,0,1,1.18-1.27,3.57,3.57,0,0,1,1.82-.45,5,5,0,0,1,2.18.5L16,11.09a6.55,6.55,0,0,0-.78-.31A2.73,2.73,0,0,0,14.41,10.66Z"/><path class="b" d="M22,16.24l-.35-1.32H19.35L19,16.24H16.91l2.3-7.07h2.54l2.33,7.07Zm-.74-2.88-.3-1.16q-.11-.38-.26-1t-.2-.88q0,.25-.17.81t-.57,2.22Z"/><path class="b" d="M31.53,16.24H29l-2.57-5h0q.09,1.17.09,1.79v3.17H24.83v-7h2.48l2.56,4.89h0q-.07-1.06-.07-1.71V9.2h1.69Z"/><path class="b" d="M36.19,10.66a1.21,1.21,0,0,0-1.06.56,2.68,2.68,0,0,0-.38,1.53q0,2,1.55,2a3.17,3.17,0,0,0,.91-.13,9.11,9.11,0,0,0,.88-.31v1.61a4.88,4.88,0,0,1-2,.39,3.15,3.15,0,0,1-2.44-.92,3.81,3.81,0,0,1-.85-2.67,4.26,4.26,0,0,1,.41-1.92,3,3,0,0,1,1.18-1.27,3.57,3.57,0,0,1,1.82-.45,5,5,0,0,1,2.18.5l-.58,1.5a6.55,6.55,0,0,0-.78-.31A2.73,2.73,0,0,0,36.19,10.66Z"/><path class="b" d="M43.63,16.24H39.45v-7h4.18v1.53H41.35v1.11h2.11v1.53H41.35v1.33h2.28Z"/><path class="b" d="M44.86,16.24v-7h1.9v5.5h2.71v1.54Z"/></svg>