<svg xmlns="http://www.w3.org/2000/svg" viewBox="0 0 51.58 51.58"><defs><style>.a{fill:#fff;}.b{fill:#231f20;}</style></defs><title>(edit) info</title><circle class="a" cx="25.79" cy="25.79" r="24.79"/><path class="b" d="M25.79,51.58A25.79,25.79,0,1,1,51.58,25.79,25.82,25.82,0,0,1,25.79,51.58ZM25.79,2A23.79,23.79,0,1,0,49.58,25.79,23.82,23.82,0,0,0,25.79,2Z"/><path d="M21.75,37.39V36.27c1.88-.22,2.06-.36,2.06-2.82V26c0-2.24-.18-2.32-1.88-2.68v-1A44.74,44.74,0,0,0,28.23,21V33.44c0,2.42.22,2.61,2.14,2.82v1.12Zm1.63-21a2.47,2.47,0,0,1,2.43-2.5,2.42,2.42,0,0,1,2.42,2.5,2.45,2.45,0,0,1-2.46,2.5A2.48,2.48,0,0,1,23.38,16.43Z"/></svg>