<svg xmlns="http://www.w3.org/2000/svg" viewBox="0 0 51.58 51.58"><defs><style>.a{fill:#fff;}.b{fill:#231f20;}</style></defs><title>(edit) focus mode</title><circle class="a" cx="25.79" cy="25.79" r="24.79"/><path class="b" d="M25.79,51.58A25.79,25.79,0,1,1,51.58,25.79,25.82,25.82,0,0,1,25.79,51.58ZM25.79,2A23.79,23.79,0,1,0,49.58,25.79,23.82,23.82,0,0,0,25.79,2Z"/><path class="b" d="M39.84,11a4.13,4.13,0,0,0-3.61-1.76,3.84,3.84,0,0,0-2.34,1.53c-1.75,2.17-3.46,4.37-5.18,6.56s-3.8,4.62-5.55,7l-.1.12a.3.3,0,0,0,.46.37l8.91-11.27,2.13,1.69L27.3,24.48l-1.05,1.33a.3.3,0,0,0,.46.37L34,17l1-1.3,2.13,1.69L33.49,22l-5.25,6.64a.3.3,0,0,0,.46.37l4.74-6,5.89-7.45C40.41,14.19,41,12.55,39.84,11Zm-7,2.11,1-1.32,4.73,3.74-1,1.32Zm7,.53a4.8,4.8,0,0,1-.86,1.42l-4.72-3.73c.87-1,1.92-1.92,3.4-1.32S40.32,12.09,39.79,13.68Z"/><path class="b" d="M27.47,29.66l-5.68,2.26.89-6a.3.3,0,0,0-.58-.09l-1,6.55a.3.3,0,0,0,.4.32l6.16-2.45A.3.3,0,0,0,27.47,29.66Z"/><path class="b" d="M28,30.27a7.67,7.67,0,1,1-5.68-5.18l.44-.51c.36-.5.74-1,1.12-1.48a9.85,9.85,0,0,0-3.16-.53,10,10,0,1,0,10,10,9.84,9.84,0,0,0-1.06-4.4l-1,1.28C28.54,29.5,28.23,29.93,28,30.27Z"/><path class="b" d="M20.58,33l.7-4.74a4.11,4.11,0,0,0-.6,0A4.36,4.36,0,1,0,25,32.56a4,4,0,0,0-.09-.8L21,33.33A.32.32,0,0,1,20.58,33Z"/><path class="b" d="M31.14,26.22a12.24,12.24,0,1,1-5.83-5l1.51-1.88a14.6,14.6,0,1,0,5.85,4.93Z"/></svg>