<svg xmlns="http://www.w3.org/2000/svg" viewBox="0 0 51.58 51.58"><defs><style>.a{fill:#fff;}.b{fill:#231f20;}</style></defs><title>(edit) delete</title><circle class="a" cx="25.79" cy="25.79" r="24.79"/><path class="b" d="M25.79,51.58A25.79,25.79,0,1,1,51.58,25.79,25.82,25.82,0,0,1,25.79,51.58ZM25.79,2A23.79,23.79,0,1,0,49.58,25.79,23.82,23.82,0,0,0,25.79,2Z"/><path class="b" d="M26.31,39.32V24.09a.5.5,0,0,0-1,0V39.32a.5.5,0,0,0,1,0Z"/><path class="b" d="M31.1,39.32V24.09a.5.5,0,0,0-1,0V39.32a.5.5,0,0,0,1,0Z"/><path class="b" d="M21.53,39.32V24.09a.5.5,0,0,0-1,0V39.32a.5.5,0,0,0,1,0Z"/><path class="b" d="M36.5,12.17c-1.11,0-4.71,0-5.4,0,0-1.38.06-2.78-1-3.85s-7.31-1.18-8.48-.09-1.11,2.51-1.1,3.94c-.53,0-4.1,0-5.35,0-2.82.1-3.61,4.18-.73,5,1,.28,22.16.09,22.19.08A2.53,2.53,0,0,0,36.5,12.17ZM22.24,9c.93-.93,6.13-.93,7.05-.09s.83,2.08.81,3.23H21.52C21.5,11.07,21.41,9.86,22.24,9Zm14.27,7.18c-6.67,0-20.83,0-21.24,0a1.56,1.56,0,0,1-1.47-2.29c.59-1,2.23-.75,3.23-.75,4,0,19,0,19.38,0A1.52,1.52,0,0,1,36.51,16.22Z"/><path class="b" d="M34.42,18.08V37.24c0,1.67.29,3.65-1.07,4.9-1.53,1.41-10.69,1-12.8.89a3.39,3.39,0,0,1-3.35-3.34c0-.41,0-.82,0-1.22V18.08a.5.5,0,0,0-1,0v20c0,2,0,3.89,1.86,5.16s10.91.85,13,.78c2.81-.09,4.34-2.31,4.34-4.93v-21a.5.5,0,0,0-1,0Z"/></svg>