<svg xmlns="http://www.w3.org/2000/svg" viewBox="0 0 51.58 51.58"><defs><style>.a{fill:#fff;}.b{fill:#231f20;}</style></defs><title>(edit) link</title><circle class="a" cx="25.79" cy="25.79" r="24.79"/><path class="b" d="M25.79,0A25.79,25.79,0,1,0,51.58,25.79,25.82,25.82,0,0,0,25.79,0Zm0,49.58A23.78,23.78,0,0,1,6.19,39.26c2-9.08,13-17.22,24.63-18.37l.06,3c0,.58.79.94,1.43.66L42.67,20a.71.71,0,0,0,0-1.38L32.1,14.46c-.65-.26-1.42.14-1.4.72l.06,2.7c-12.17,1-23.68,8.67-26.7,17.57A23.78,23.78,0,1,1,25.79,49.58Z"/></svg>