<svg xmlns="http://www.w3.org/2000/svg" viewBox="0 0 29.19 29.19"><defs><style>.a{fill:#fff;}.b{fill:#231f20;}</style></defs><title>focus</title><path class="a" d="M14.59,29.19A14.59,14.59,0,1,1,29.19,14.59,14.61,14.61,0,0,1,14.59,29.19Z"/><path class="b" d="M14.59,29.19A14.59,14.59,0,1,1,29.19,14.59,14.61,14.61,0,0,1,14.59,29.19Zm0-26.85A12.26,12.26,0,1,0,26.85,14.59,12.27,12.27,0,0,0,14.59,2.34Z"/><path class="b" d="M14.59,24.58a10,10,0,1,1,10-10A10,10,0,0,1,14.59,24.58Zm0-17.63a7.65,7.65,0,1,0,7.65,7.65A7.66,7.66,0,0,0,14.59,6.95Z"/><circle class="b" cx="14.59" cy="14.59" r="4.36"/></svg>