<svg xmlns="http://www.w3.org/2000/svg" viewBox="0 0 60.35 25.44"><defs><style>.a{fill:#4f4f56;}.b{fill:#fff;}</style></defs><title>ok</title><rect class="a" width="60.35" height="25.44" rx="12.72" ry="12.72"/><path class="b" d="M30.19,12.72a3.8,3.8,0,0,1-.87,2.7,3.34,3.34,0,0,1-2.55.92,3.34,3.34,0,0,1-2.54-.93,3.78,3.78,0,0,1-.88-2.71A3.76,3.76,0,0,1,24.22,10a3.35,3.35,0,0,1,2.55-.93,3.34,3.34,0,0,1,2.55.92A3.8,3.8,0,0,1,30.19,12.72Zm-4.84,0q0,2,1.42,2a1.22,1.22,0,0,0,1.07-.5,2.72,2.72,0,0,0,.35-1.55,2.74,2.74,0,0,0-.35-1.56,1.21,1.21,0,0,0-1.06-.5Q25.34,10.66,25.34,12.72Z"/><path class="b" d="M37.47,16.25H35.33l-1.39-2.69-.56.34v2.35H31.46v-7h1.91v3.06a8.32,8.32,0,0,1,.58-.9l1.48-2.16h2.08l-2.22,3.15Z"/></svg>