<?xml version="1.0" encoding="UTF-8" standalone="no"?>
<!-- Created with Inkscape (http://www.inkscape.org/) -->

<svg
   xmlns:dc="http://purl.org/dc/elements/1.1/"
   xmlns:cc="http://creativecommons.org/ns#"
   xmlns:rdf="http://www.w3.org/1999/02/22-rdf-syntax-ns#"
   xmlns:svg="http://www.w3.org/2000/svg"
   xmlns="http://www.w3.org/2000/svg"
   xmlns:xlink="http://www.w3.org/1999/xlink"
   xmlns:sodipodi="http://sodipodi.sourceforge.net/DTD/sodipodi-0.dtd"
   xmlns:inkscape="http://www.inkscape.org/namespaces/inkscape"
   width="744.09448819"
   height="1052.3622047"
   id="svg2"
   version="1.1"
   inkscape:version="0.48.4 r9939"
   sodipodi:docname="New document 1">
  <defs
     id="defs4" />
  <sodipodi:namedview
     id="base"
     pagecolor="#ffffff"
     bordercolor="#666666"
     borderopacity="1.0"
     inkscape:pageopacity="0.0"
     inkscape:pageshadow="2"
     inkscape:zoom="0.35"
     inkscape:cx="14.410742"
     inkscape:cy="283.97238"
     inkscape:document-units="px"
     inkscape:current-layer="layer1"
     showgrid="false"
     inkscape:window-width="1920"
     inkscape:window-height="980"
     inkscape:window-x="0"
     inkscape:window-y="28"
     inkscape:window-maximized="1" />
  <metadata
     id="metadata7">
    <rdf:RDF>
      <cc:Work
         rdf:about="">
        <dc:format>image/svg+xml</dc:format>
        <dc:type
           rdf:resource="http://purl.org/dc/dcmitype/StillImage" />
        <dc:title></dc:title>
      </cc:Work>
    </rdf:RDF>
  </metadata>
  <g
     inkscape:groupmode="layer"
     id="layer2"
     inkscape:label="BG"
     style="display:none">
    <image
       y="-634.7807"
       x="-1256.3572"
       id="image3048"
       xlink:href="file:///home/tomby/Downloads/matous.lomnicky_2016-05-11_09-10-45_2.jpg"
       height="2480"
       width="3507" />
  </g>
  <g
     inkscape:label="Layer 1"
     inkscape:groupmode="layer"
     id="layer1"
     style="display:inline">
    <path
       style="fill:#ff0000;fill-opacity:0"
       id="path3051"
       d="m -65.985095,1199.3195 c -8.063974,1.6724 -16.265763,2.4723 -24.470542,3.0376 -6.425397,0.3699 -12.863173,0.4712 -19.297893,0.5272 -3.76481,0.032 -7.52965,0 -11.29442,-0.016 -5.10831,-0.1563 -10.19034,-0.8308 -15.2992,-1.1278 -7.57298,-0.239 -15.13507,-0.3818 -22.69856,-0.8503 -7.21744,-0.2116 -14.37156,-1.1743 -21.55899,-1.779 -5.79632,-0.549 -11.63089,-0.2844 -17.42473,-0.7882 -6.22441,-0.4504 -12.37495,-1.4837 -18.52816,-2.4828 -4.73484,-1.2993 -9.65789,-1.7951 -14.41003,-2.9732 -3.7905,-0.7028 -7.56724,-1.4678 -11.37352,-2.0919 -5.16632,-0.7007 -10.39311,-0.7255 -15.59695,-0.8031 -7.7135,-0.081 -15.4276,-0.066 -23.14139,-0.05 -6.56049,0.02 -13.12098,0.036 -19.68149,0.045 -5.36037,-0.028 -10.6924,0.7073 -16.03085,1.1351 -3.6428,0.139 -7.2675,0.69 -10.81137,1.5441 -3.45927,0.784 -6.94735,1.2584 -10.39235,2.0893 -4.45669,0.7247 -8.98173,0.8199 -13.48643,0.9137 -4.43333,0.075 -8.86758,0.083 -13.30146,0.093 -3.07961,-0.1491 -6.35363,-0.4576 -9.30193,-1.4273 -2.91934,-0.5758 -5.62431,-1.6585 -8.30608,-2.9043 -2.49461,-1.1855 -4.80963,-2.5441 -7.15367,-3.9959 -1.99903,-1.5932 -4.07176,-3.0975 -6.19376,-4.5193 -1.9403,-1.6198 -3.83807,-3.3203 -6.09525,-4.4831 -2.10173,-1.5679 -4.6496,-2.2921 -6.87848,-3.6304 -2.25987,-1.1989 -4.5756,-2.2302 -7.07542,-2.8039 -2.74777,-0.984 -5.60099,-1.5547 -8.40731,-2.3389 -2.80942,-0.7537 -5.71632,-0.9118 -8.60815,-1.0082 -3.42623,-0.073 -6.85371,-0.064 -10.28054,-0.056 -3.62499,-0.303 -7.11475,-1.22 -10.65233,-1.9934 -2.60277,-1.2905 -5.28354,-2.3668 -7.95702,-3.5068 -2.76078,-0.7872 -5.362,-1.8834 -7.93974,-3.126 -2.73043,-1.5829 -5.27027,-3.4512 -7.60751,-5.5705 -2.54021,-2.1654 -4.26992,-5.0001 -6.23277,-7.6443 -1.54975,-2.371 -3.04929,-4.7377 -4.73404,-7.0123 -1.71778,-2.0391 -3.67645,-3.8475 -5.48462,-5.8014 -1.64181,-2.0264 -3.31632,-4.0317 -4.92599,-6.0846 -1.77758,-2.2132 -3.49604,-4.4681 -5.44714,-6.5319 -1.85676,-2.3048 -3.87027,-4.4664 -5.81805,-6.6962 -1.87903,-2.2428 -3.60311,-4.5717 -5.18596,-7.0329 -1.60281,-2.5953 -2.78977,-5.4232 -4.36917,-8.027 -1.52537,-2.3621 -2.73339,-4.9194 -4.26477,-7.2734 -1.30473,-2.3003 -2.92482,-4.4034 -4.16684,-6.7358 -1.37066,-1.8626 -2.0642,-4.0672 -2.96329,-6.1691 -1.22083,-2.2012 -1.89337,-4.6244 -2.81828,-6.9511 -1.24257,-1.928 -2.01778,-4.1028 -3.18206,-6.0697 -1.12666,-2.1264 -2.37453,-4.1723 -3.15902,-6.4565 -0.97483,-2.4238 -1.48071,-4.982 -2.32561,-7.4469 -0.71522,-2.58 -1.53639,-5.1313 -2.11302,-7.748 -0.55182,-2.8198 -1.13176,-5.6454 -1.81565,-8.4371 -0.81465,-2.6773 -1.13094,-5.4558 -1.90764,-8.1393 -0.75969,-2.5195 -0.96686,-5.1445 -1.52831,-7.7074 -0.68012,-2.8329 -0.9463,-5.7319 -1.10301,-8.6333 -0.11963,-2.8731 -0.11331,-5.7493 -0.11401,-8.6243 0.0256,-2.7916 -0.14408,-5.58284 0.31121,-8.34642 0.58271,-2.41042 0.70977,-4.89442 1.30365,-7.29906 0.46974,-2.28412 1.20088,-4.47779 1.98089,-6.67028 0.91326,-2.16331 1.87186,-4.24659 3.28224,-6.1306 2.37412,-3.19017 5.1372,-6.01604 8.09766,-8.65523 2.92323,-2.34099 5.8326,-4.69101 8.5818,-7.23708 1.86853,-1.63524 4.03255,-2.87882 5.90118,-4.50987 1.97853,-1.45618 4.02533,-2.78702 5.85209,-4.44368 2.34886,-1.9718 4.59954,-4.0789 6.67745,-6.33568 2.4305,-2.60741 4.15654,-5.70295 5.93203,-8.76042 1.71967,-2.7474 3.01431,-5.71274 4.3142,-8.67199 1.24682,-2.76154 2.42575,-5.55125 3.62051,-8.3352 1.41138,-3.052 2.05893,-6.29373 2.43913,-9.60958 0.38172,-4.42735 -2.42473,-7.56121 -5.41665,-10.41842 -3.27478,-3.27717 -7.27566,-5.61994 -11.01499,-8.3076 -2.84251,-1.67009 -5.62148,-3.41144 -8.37756,-5.21502 -2.04738,-1.5524 -3.83782,-3.24854 -5.32646,-5.35167 -1.91301,-2.46839 -2.87374,-5.34821 -3.44224,-8.37481 -0.71478,-2.85464 -1.26526,-5.73057 -1.57485,-8.65675 -0.25465,-2.88213 -0.26882,-5.77773 -0.28352,-8.66881 -0.15269,-2.94554 0.088,-5.83499 0.57594,-8.73511 0.55835,-2.82287 0.6022,-5.70435 0.91756,-8.55443 0.54921,-2.81195 0.96862,-5.63659 1.19152,-8.49277 0.44856,-2.90591 0.92029,-5.81401 1.43695,-8.70987 0.73154,-2.8359 1.08911,-5.74324 1.75111,-8.59275 0.53473,-2.87359 1.35256,-5.68056 1.97252,-8.53436 0.55496,-2.76628 0.65546,-5.59058 0.72271,-8.40235 0.0442,-2.85026 0.0306,-5.70102 0.0254,-8.55151 -0.006,-2.8576 -0.008,-5.71521 -0.01,-8.57282 0.0339,-3.17353 0.11224,-6.32691 -0.3247,-9.47559 -0.3541,-3.00032 -0.91176,-5.94831 -1.5529,-8.89741 -0.60269,-2.69447 -0.63054,-5.45655 -1.24803,-8.1444 -0.6759,-2.55508 -0.91484,-5.18396 -1.06037,-7.81334 -0.22369,-2.71952 -0.10471,-5.38289 0.42715,-8.053 0.53611,-2.23379 1.50633,-4.32688 2.58082,-6.34586 1.5138,-2.87001 3.0287,-5.74243 4.6608,-8.54844 1.9698,-2.88886 3.75459,-5.90154 5.75783,-8.76661 2.19774,-3.3727 4.5826,-6.61249 6.99215,-9.8352 1.61142,-2.20239 3.37537,-4.26741 5.32855,-6.16954 2.35908,-2.40781 4.78551,-4.75437 7.24234,-7.06447 3.35386,-2.99909 6.75336,-5.93997 10.36511,-8.62488 4.53279,-3.4709 9.33001,-6.52966 14.20184,-9.49115 4.53616,-2.79376 9.02993,-5.65621 13.53258,-8.50402 4.64391,-3.05182 9.42256,-5.88093 14.16477,-8.77329 8.86261,-6.07441 18.40838,-11.05963 27.85677,-16.12775 3.21982,-1.73729 6.74885,-2.71898 10.12251,-4.0999 0.60839,-0.22203 1.23309,-0.40366 1.82519,-0.66607 0.97193,-0.52221 1.93155,-1.06526 2.9448,-1.50644 1.33094,-0.5795 2.72619,-0.90593 4.06924,-1.45656 0.45134,-0.15009 0.92047,-0.2546 1.35401,-0.45025 5.3187,-2.40022 -3.0069,1.00329 2.25454,-1.21994 1.22555,-0.51786 2.55378,-0.78009 3.81708,-1.19187 5.41987,-1.06124 10.97408,-1.1665 16.47809,-1.33361 6.63792,0.0367 13.24374,-0.63114 19.86307,-1.03906 5.20421,0.0202 10.31656,-0.85462 15.45884,-1.50859 6.66707,-1.8581 18.51296,-8.93691 -13.68736,8.23755 -0.63555,0.33898 1.15458,-0.86453 1.69173,-1.34441 1.43095,-1.27841 2.02257,-2.09711 3.28212,-3.59212 3.11911,-3.90124 5.80515,-8.11091 8.32667,-12.41395 1.84208,-3.52994 3.96381,-6.89737 6.05204,-10.28408 2.01603,-3.29232 4.01217,-6.60084 6.10574,-9.84477 2.57873,-3.57931 4.68811,-7.45039 6.95597,-11.22532 2.19773,-3.61131 3.93987,-7.4552 5.76424,-11.25813 2.39641,-4.80118 4.45938,-9.75667 6.787,-14.59089 1.97459,-3.98156 3.81739,-8.02693 5.83581,-11.98679 1.78597,-3.35911 3.2017,-6.89114 4.64559,-10.40443 1.59094,-3.27192 3.30985,-6.45577 5.40356,-9.43337 2.1098,-3.39684 4.40181,-6.65286 6.86551,-9.80236 2.26328,-2.76979 4.44341,-5.5958 6.80215,-8.2861 2.3627,-2.33483 4.85752,-4.53143 7.27264,-6.81233 2.97077,-3.05115 6.50978,-5.44624 9.94095,-7.93907 4.04679,-2.69721 7.96316,-5.5803 11.96629,-8.3395 10.28782,-6.8067 20.96525,-13.04762 31.94945,-18.66284 7.99258,-3.87374 16.28095,-7.1528 24.67937,-10.03583 6.215,-2.03431 12.43748,-4.1157 18.76081,-5.79454 5.31084,-1.77009 10.78793,-2.9609 16.29879,-3.91254 6.12956,-0.74088 12.10765,-2.22177 18.0907,-3.69069 7.34145,-1.89527 14.77296,-3.49738 22.09464,-5.47054 7.05488,-2.21725 14.224493,-4.00069 21.407677,-5.77518 11.524065,-2.75411 23.058849,-5.51329 34.685999,-7.79575 12.07938,-2.61391 24.075675,-5.61281 35.988577,-8.89964 5.130415,-1.356 10.1548036,-3.05068 15.3115981,-4.303 19.7524549,-3.18244 39.6750909,-5.23823 59.5016429,-7.93956 12.766821,-1.50961 25.414441,-3.79653 37.902593,-6.82578 4.349107,-0.91515 8.624123,-2.10143 12.917963,-3.24066 5.83997,-1.0542 11.71497,-1.85338 17.62412,-2.40243 6.55786,-1.02243 13.23264,-1.11039 19.7852,-2.11629 6.37797,-1.08969 12.88386,-0.88074 19.31379,-1.46197 5.68616,-0.66652 11.39381,-1.07684 17.11466,-1.2533 5.08841,-0.57531 9.33399,0.41649 14.11601,1.98001 5.13577,1.6147 10.37627,3.09989 15.23112,5.45967 2.9719,1.26296 5.46086,3.36 7.83578,5.50535 3.69801,3.1333 7.51028,6.11963 11.26389,9.18526 3.53264,3.2412 7.41215,6.046 11.16787,9.00684 3.16733,2.02552 6.06647,4.39838 8.9703,6.77751 3.26868,2.40294 6.36152,4.96317 9.38227,7.67175 2.94507,2.34606 5.90212,4.70757 8.61044,7.32675 2.40877,2.38269 5.60928,3.4565 8.56247,4.93627 2.61868,1.00978 5.09674,2.26958 7.60722,3.51363 2.37205,1.0614 4.44423,1.25822 6.94378,0.71988 6.47422,-4.18944 0.0738,-0.0238 -16.50634,9.25433 -0.36766,0.20574 0.72504,-0.43246 1.06183,-0.68558 1.03553,-0.77825 1.85659,-1.80073 2.72472,-2.75061 1.73738,-2.43863 3.79114,-4.53273 6.13992,-6.37663 2.89179,-2.20633 5.66482,-4.55386 8.44774,-6.89383 2.46988,-2.0901 4.98702,-4.12232 7.49291,-6.16916 2.34096,-1.88651 4.66851,-3.79137 7.12786,-5.5233 2.56567,-1.8197 5.04683,-3.75478 7.51949,-5.69774 7.42964,-6.7212 16.95671,-10.46337 25.89842,-14.74285 3.81239,-1.80591 7.9017,-2.65178 11.91295,-3.83929 4.20802,-1.53084 8.47467,-2.24366 12.91871,-2.61861 6.24977,-0.5557 12.48304,-0.41063 18.72747,0.0346 7.06082,0.5157 14.07909,1.45431 21.14246,1.97059 4.70211,0.189 9.33685,1.06236 14.01723,1.50983 2.99069,0.25878 5.99405,0.27952 8.99366,0.29258 3.04798,-0.002 6.09594,0.004 9.14392,0.001 3.84513,-0.19486 7.67077,-0.79869 11.52192,-1.09336 4.38434,-0.15734 8.7378,-0.31123 13.09729,-0.80452 5.45551,-0.64422 10.96029,-0.36114 16.435,-0.55529 3.814,-0.13526 11.33041,-0.68805 15.07148,-0.94658 8.03857,-0.21415 16.05633,-1.69119 24.10293,-1.72728 3.77112,-0.0169 9.05324,0.53675 12.67494,0.84699 15.83523,1.3993 31.71895,2.85229 47.37604,5.6736 12.09728,2.83078 23.87673,6.83533 35.86073,10.09193 6.27556,1.68397 12.7329,2.84659 18.86758,5.03745 2.52378,0.90132 4.46344,1.87396 6.87752,3.00179 5.74805,3.21884 11.30237,6.77422 16.78347,10.4255 4.54422,2.8402 8.22226,6.70427 12.06966,10.3743 4.0582,3.85384 8.02251,7.80477 12.0074,11.73393 3.1546,3.86794 6.82764,7.18526 10.52834,10.50166 2.55529,2.14194 4.56205,4.81644 6.88796,7.1791 2.35908,2.55822 4.04234,5.61041 5.98268,8.47576 2.76598,4.49658 6.21979,8.49154 9.74062,12.40225 3.95165,4.11663 7.84635,8.29135 11.83773,12.3675 3.56915,3.63197 6.36857,7.88215 9.64551,11.75928 3.26003,3.46482 6.05248,7.30996 8.90505,11.10393 2.34147,3.19342 5.19818,5.94813 7.73883,8.9709 2.217,2.79777 4.13363,5.80232 6.38711,8.57649 2.69404,2.91426 4.66494,6.37597 6.78442,9.70478 2.56481,4.23947 4.77876,8.6759 7.18024,13.00863 3.16596,5.63478 5.17613,11.83847 7.22078,17.94585 1.92976,5.8222 3.89419,11.62631 5.48974,17.55191 1.24835,4.19987 2.51584,8.39729 3.59804,12.64373 0.80369,3.46631 1.57207,6.94113 2.51431,10.37328 1.10295,3.78163 1.29744,7.7204 1.43466,11.63117 0.11308,5.14911 0.096,10.29984 0.093,15.44986 -0.0425,4.25472 0.16843,8.51337 -0.11226,12.76119 -0.35374,4.32495 -1.27895,8.57045 -2.10599,12.82256 -1.15746,6.4289 -2.41109,12.8305 -4.10904,19.13993 -2.0685,7.11014 -4.14105,14.21921 -6.18653,21.33641 -1.9098,6.61553 -3.8612,13.20997 -6.00673,19.75311 -2.04969,5.23191 -3.20507,10.71662 -4.29853,16.20728 -1.04624,5.25477 -2.53457,10.40376 -4.28315,15.46386 -1.41548,4.03437 -2.92878,8.03391 -4.38762,12.05309 -1.81808,4.33928 -2.96536,8.90763 -4.43499,13.36662 -1.03154,3.52461 -2.45314,6.88358 -3.92875,10.23818 -1.81628,3.69715 -3.35893,7.51636 -5.03165,11.27825 -1.47183,3.61232 -3.11031,7.10575 -5.16029,10.42515 -2.66961,4.09352 -5.23118,8.25604 -7.97943,12.29777 -2.78822,4.25867 -5.86458,8.29316 -9.34331,12.00781 -3.53684,3.70507 -7.37739,7.0411 -11.41906,10.17767 -4.45422,3.49511 -9.24546,6.51871 -13.9865,9.60128 -10.4887,7.06663 -21.60253,13.03867 -33.10248,18.19889 -6.26096,2.34978 -12.71725,4.11553 -19.23551,5.59283 -6.72636,1.39468 -13.50171,2.5014 -20.25296,3.76217 -5.34051,1.4015 -10.8215,2.07515 -16.24998,3.02977 -3.91723,0.72291 -7.88053,1.0936 -11.85868,1.20266 -3.60447,0.16264 -7.22507,-0.17803 -10.80682,0.28777 -3.6503,0.60742 -7.33268,0.88619 -11.02497,1.05753 -3.61353,0.38564 -7.28177,0.78902 -10.8681,1.45198 -4.15682,0.96476 -8.45532,0.92404 -12.64051,1.63707 -4.09244,0.56309 -8.14832,1.31113 -12.23333,1.92743 -5.05366,0.60969 -10.1535,0.68781 -15.23771,0.75518 -5.21872,0.0637 -10.43802,0.0389 -15.65698,0.0298 -5.57113,-0.007 -11.14227,-0.0212 -16.7134,-0.009 -4.67303,-0.0537 -9.30633,0.72415 -13.95302,1.14351 -3.94682,0.28183 -7.90525,0.29021 -11.85986,0.31469 -3.5695,0.0249 -7.13904,0.016 -10.70857,0.0115 -3.56709,0.10685 -7.15828,-0.32881 -10.61032,-1.22713 -0.55379,-0.14296 -1.10758,-0.28592 -1.66136,-0.42888 0,0 17.44748,-12.0349 17.44748,-12.0349 l 0,0 c 0.5424,0.13094 1.0848,0.26188 1.62719,0.39282 3.41467,0.6429 6.85849,0.9938 10.33822,0.84679 3.55594,0.002 7.11192,0.009 10.66783,-0.006 3.92594,-0.0393 7.85651,-0.10399 11.76847,-0.46701 4.65017,-0.43557 9.30116,-1.05806 13.98242,-0.92414 5.57009,0.0158 11.14022,0.008 16.71033,0.0128 5.21245,-9e-5 10.42514,0.005 15.63725,-0.0633 5.0503,-0.11024 10.11967,-0.23924 15.11886,-1.03005 4.08616,-0.66744 8.16832,-1.34449 12.27023,-1.91181 4.21139,-0.46899 8.43861,-0.81915 12.59885,-1.66758 3.66747,-0.52965 7.33676,-1.16844 11.04477,-1.29625 3.67237,-0.22627 7.31681,-0.67392 10.96932,-1.10707 3.62466,-0.18004 7.25623,-0.0481 10.88239,-0.22124 3.89081,-0.22009 7.76385,-0.64118 11.59861,-1.35124 5.41639,-0.9263 10.85051,-1.74016 16.2004,-3.01777 6.7097,-1.20759 13.44295,-2.28656 20.09788,-3.7822 6.46846,-1.61397 12.92789,-3.36238 19.07662,-5.97674 2.65314,-1.20952 5.30139,-2.41047 7.87554,-3.78346 0.83496,-0.44535 3.30025,-1.85311 2.48538,-1.37199 -18.71735,11.05129 -20.39095,12.15157 -13.3363,7.67818 4.71405,-3.11166 9.57793,-6.01485 14.05386,-9.4717 4.08008,-3.02427 7.96774,-6.23795 11.50695,-9.88607 3.62084,-3.49167 6.71989,-7.45573 9.46316,-11.67107 2.82351,-3.9555 5.34528,-8.10616 7.95381,-12.20396 2.14614,-3.18681 3.88658,-6.51355 5.29576,-10.09019 1.55158,-3.81677 3.30846,-7.56219 5.00371,-11.32173 1.54076,-3.28763 2.99946,-6.59575 4.03835,-10.0826 1.64913,-4.41466 2.64285,-9.0363 4.41822,-13.40758 1.54264,-3.9867 2.89746,-8.04367 4.42944,-12.03428 1.82131,-4.96265 3.43369,-10.00705 4.45402,-15.2024 1.09481,-5.56892 2.11719,-11.18723 4.24963,-16.4763 2.19499,-6.52002 4.19761,-13.08476 6.09449,-19.69747 2.03119,-7.11641 4.15851,-14.20369 6.19344,-21.31772 1.76299,-6.22089 3.02261,-12.55153 4.04304,-18.93418 0.83547,-4.17304 1.64324,-8.36024 2.15564,-12.58584 0.43402,-4.19325 0.12485,-8.429 0.25959,-12.63917 0.005,-5.12023 0.0267,-10.24154 -0.0997,-15.36063 -0.13404,-3.74601 -0.27526,-7.52753 -1.27097,-11.16498 -0.93704,-3.45362 -1.77414,-6.93308 -2.51762,-10.43218 -1.00944,-4.2597 -2.28985,-8.45253 -3.48679,-12.66219 -1.53397,-5.90552 -3.39811,-11.70696 -5.33963,-17.48936 -1.95274,-5.99364 -4.02068,-12.03818 -7.11564,-17.5496 -2.39478,-4.28315 -4.62196,-8.66057 -7.17533,-12.85286 -2.1184,-3.24113 -4.04845,-6.63537 -6.70608,-9.48524 -2.23966,-2.76816 -4.1616,-5.7527 -6.36139,-8.54646 -2.56965,-3.04879 -5.43962,-5.8463 -7.77725,-9.09178 -2.80159,-3.77987 -5.55401,-7.59617 -8.7812,-11.03613 -3.22442,-3.85786 -6.06332,-8.02201 -9.58017,-11.63362 -3.93195,-4.15984 -7.88561,-8.29752 -11.82144,-12.45417 -3.60285,-3.9727 -7.10336,-8.05798 -9.99909,-12.58725 -1.88591,-2.76835 -3.57391,-5.68521 -5.89278,-8.12821 -2.20252,-2.40046 -4.23323,-4.96532 -6.71626,-7.09674 -3.67996,-3.37204 -7.27289,-6.80898 -10.49872,-10.63131 -3.9539,-3.94161 -7.94302,-7.8475 -11.98186,-11.70217 -3.75981,-3.58753 -7.46088,-7.25658 -11.86159,-10.07603 -5.37545,-3.60542 -10.80437,-7.16234 -16.52535,-10.20068 -8.07467,-3.67762 -16.63818,-5.82417 -25.22471,-7.98317 -11.94251,-3.35384 -23.76377,-7.20279 -35.88908,-9.86271 -15.50835,-3.04588 -31.27676,-4.62485 -47.03896,-5.62148 -5.14136,-0.28847 -7.82513,-0.55469 -12.776,-0.44931 -7.93291,0.16885 -15.84341,1.16427 -23.76666,1.5117 -10.68444,0.74559 -21.38866,1.07085 -32.0556,2.00092 -4.37932,0.4305 -8.77037,0.47161 -13.15759,0.79134 -3.88921,0.35198 -7.76046,1.03476 -11.67353,0.98929 -3.06131,0.004 -6.12268,0.0313 -9.18393,-4.7e-4 -3.02985,-0.0447 -6.06266,-0.13266 -9.07468,-0.4908 -4.60903,-0.55669 -9.19236,-1.36887 -13.8389,-1.56541 -7.02761,-0.61609 -14.02238,-1.58813 -21.06863,-1.97729 -6.2043,-0.33209 -12.41587,-0.33335 -18.60524,0.30743 -4.38348,0.54302 -8.58101,1.64715 -12.79206,2.96729 -4.02109,1.05104 -7.94745,2.34186 -11.71096,4.13179 -1.05558,0.48724 -2.12676,0.94035 -3.18034,1.43192 -0.45347,0.21158 -1.77458,0.92394 -1.34328,0.67022 29.91328,-17.59619 20.81627,-12.54097 14.86814,-8.55515 -2.26325,2.23676 -5.01868,3.89195 -7.4587,5.93122 -2.46114,1.7183 -4.94607,3.42289 -7.16499,5.45314 -2.64567,1.85673 -5.05071,4.08383 -7.54109,6.13661 -2.88928,2.16669 -5.41883,4.78383 -8.40983,6.82864 -2.1828,1.91577 -4.76512,3.38905 -6.28128,5.98443 -5.51477,7.62499 -14.66425,13.82154 -23.87935,15.23395 -2.67296,0.11881 -5.26104,-0.56208 -7.64845,-1.76313 -2.47219,-1.27156 -5.03299,-2.34258 -7.54872,-3.52131 -3.16255,-1.51197 -6.4223,-2.94484 -8.92908,-5.4819 -2.70415,-2.57999 -5.61057,-4.93424 -8.49597,-7.30649 -3.01195,-2.678 -6.18531,-5.10521 -9.3701,-7.5719 -2.89744,-2.36762 -5.86435,-4.62314 -8.93742,-6.75719 -3.7456,-2.97468 -7.54063,-5.88441 -11.10723,-9.07902 -3.79108,-3.07332 -7.63965,-6.07462 -11.41027,-9.17361 -2.32458,-1.93682 -4.66418,-3.87013 -7.49178,-5.03754 -4.8098,-2.20193 -9.88085,-3.78817 -14.94925,-5.27536 -4.53793,-1.26633 -9.01683,-1.86002 -13.74071,-1.39229 -5.67076,0.24259 -11.32405,0.71195 -16.97338,1.25684 -6.4597,0.42622 -12.95491,0.52549 -19.35213,1.62391 -6.57488,0.69813 -13.18337,1.08728 -19.73702,2.00197 -5.90088,0.6249 -11.801478,1.43134 -17.582987,2.7877 -4.231872,1.10039 -8.463649,2.18571 -12.754022,3.04129 -12.262627,2.73625 -24.679587,4.65101 -37.16887,6.02465 -20.140376,2.59907 -40.4391171,4.60988 -60.308562,8.87058 -5.035602,1.42124 -10.05997,2.88713 -15.130351,4.17874 -11.922601,3.11471 -23.916153,5.96631 -35.930358,8.70272 -11.529268,2.50492 -23.115114,4.7679 -34.52571,7.79049 -7.29923,1.90985 -14.51801,4.06726 -21.78878,6.06851 -7.35228,1.76916 -14.69707,3.55887 -22.03013,5.40603 -6.01097,1.51706 -12.06691,2.76952 -18.21253,3.61872 -5.51622,1.07289 -10.95002,2.45913 -16.31041,4.14852 -6.17759,1.74559 -12.33669,3.58051 -18.39665,5.70131 -8.38448,3.02608 -16.71375,6.28232 -24.63954,10.38319 -8.4557,4.4983 -2.91665,1.59891 12.56744,-7.44266 0.75835,-0.44282 -1.5454,0.83598 -2.29663,1.29078 -2.11339,1.27946 -4.14802,2.70124 -6.24164,4.01294 -4.08496,2.61196 -7.84687,5.68409 -11.94902,8.27596 -3.46319,2.33981 -6.93366,4.79173 -10.00382,7.62105 -2.37262,2.28682 -4.76557,4.55312 -7.25134,6.71755 -2.63383,2.43532 -4.63266,5.41429 -6.95655,8.13064 -2.52066,3.07058 -5.00095,6.20626 -6.88003,9.71935 -2.19604,2.82128 -3.92199,5.85436 -5.56475,9.01273 -1.69826,3.42718 -2.81931,7.1346 -4.59393,10.53552 -2.18693,3.90514 -3.968,8.00585 -6.00441,11.98875 -2.41713,4.77141 -4.40059,9.73495 -6.69322,14.56347 -1.97724,3.76097 -3.46536,7.77491 -5.71238,11.40537 -2.25735,3.79294 -4.35196,7.67399 -6.86592,11.30238 -2.20076,3.17452 -4.10448,6.54912 -6.17384,9.80388 -2.11975,3.3428 -4.22157,6.71578 -6.05016,10.22629 -2.59546,4.34764 -5.19961,8.68619 -8.27085,12.72516 -0.12213,0.15745 -2.8465,3.68236 -3.07484,3.92939 -6.35738,6.87763 -15.26557,12.25182 -24.55692,13.69345 -5.10895,0.64482 -10.21847,1.1791 -15.37355,1.27983 -6.63497,0.42673 -13.26131,1.01255 -19.91593,1.00595 -5.46422,0.21952 -11.04474,0.34591 -16.31467,1.95073 -2.52939,0.82598 -4.85532,2.08078 -7.37091,2.94576 -2.98966,1.04419 -5.77701,2.5354 -8.7623,3.59473 -3.41352,1.26761 -6.8175,2.55499 -10.0196,4.30923 -1.37632,0.69377 -1.58726,0.7859 -2.94074,1.525 -0.51916,0.28351 -2.06022,1.16343 -1.54952,0.86495 29.89592,-17.4728 18.92711,-11.50018 12.84023,-7.16192 -4.69551,3.00286 -9.61585,5.64038 -14.23122,8.77629 -4.4682,2.88345 -8.98807,5.68335 -13.48266,8.52359 -4.83445,3.0058 -9.81261,5.76815 -14.2642,9.35445 -3.6714,2.54071 -7.0037,5.46059 -10.40235,8.34067 -2.42726,2.27616 -4.74924,4.63099 -7.19724,6.86807 -1.71716,2.10894 -4.01274,3.71072 -5.45423,6.07212 -2.58767,3.0311 -4.86397,6.35749 -7.03093,9.70048 -1.98521,2.861 -3.83363,5.79673 -5.82468,8.65689 -1.73207,2.69888 -3.26889,5.57229 -4.59548,8.47709 -1.17942,1.82298 -2.00519,3.73396 -2.88188,5.7111 -0.52143,2.53639 -1.035,4.97032 -0.68169,7.58996 0.10541,2.50571 0.2637,5.02087 0.89521,7.4596 0.65849,2.71081 0.76609,5.45577 1.23941,8.202 0.62842,2.99982 1.30341,5.96828 1.59958,9.02698 0.50201,3.23761 0.57459,6.46155 0.49045,9.73777 0.001,2.85668 0.003,5.71336 0.008,8.57003 0.006,2.86377 0.0185,5.72763 -0.005,8.59135 -0.0422,2.91968 -0.10118,5.85024 -0.55921,8.74051 -0.52589,2.90539 -1.46229,5.69485 -1.93862,8.60849 -0.6965,2.83696 -1.09331,5.70665 -1.77052,8.55012 -0.71204,2.76587 -0.79149,5.66968 -1.56865,8.43299 -0.16998,2.90688 -0.46319,5.80608 -1.11552,8.65005 -0.55962,2.82446 -0.31251,5.75519 -0.90167,8.58815 -0.47791,2.80204 -0.9891,5.54418 -0.7359,8.40859 0.005,2.83244 0.002,5.66807 0.19252,8.49551 0.24678,2.88331 0.71351,5.72896 1.50285,8.51819 0.41752,2.7457 1.19582,5.3283 2.98088,7.52507 1.37469,1.86755 3.08732,3.32976 4.94583,4.706 2.70259,1.87869 5.5667,3.49143 8.28608,5.34347 3.82894,2.7335 7.87412,5.20306 11.20072,8.5719 3.31893,3.31932 6.43053,7.099 6.35903,12.05087 -0.26563,3.45291 -0.70416,6.89589 -2.1066,10.10082 -1.0202,2.87928 -2.46014,5.60152 -3.64648,8.41579 -1.23772,3.02176 -2.48189,6.08287 -4.1915,8.87205 -1.72468,3.18418 -3.53058,6.32455 -5.76972,9.18522 -2.01224,2.35803 -4.21221,4.52393 -6.49348,6.60427 -1.94872,1.49325 -3.53526,3.47089 -5.85215,4.45858 -1.96201,1.52367 -3.73702,3.2865 -5.96101,4.46734 -2.89997,2.39082 -5.48177,5.17017 -8.64245,7.25457 -2.94155,2.55286 -5.87885,5.08835 -8.20061,8.25124 -1.40642,1.78381 -2.72396,3.47096 -3.41691,5.68008 -1.15338,1.90341 -1.63101,4.20324 -2.1457,6.34587 -0.69886,2.36339 -0.92285,4.74624 -1.37281,7.17149 -0.62347,2.64278 -0.58585,5.27333 -0.52265,7.9871 -0.003,2.84491 -0.0141,5.69057 0.0681,8.53462 0.11151,2.7868 0.29582,5.58 0.93538,8.3044 0.57957,2.521 0.85371,5.0723 1.48327,7.5807 0.79387,2.7096 1.12951,5.4915 1.90842,8.2078 0.76859,2.7975 1.2729,5.6868 1.87385,8.5211 0.50784,2.5499 1.36435,4.9938 2.00817,7.5081 0.84714,2.4776 1.34765,5.0402 2.34679,7.4675 0.66844,2.1647 1.90552,4.056 2.9284,6.064 1.20579,2.07 2.08354,4.3114 3.34677,6.3533 0.90944,2.3144 1.56002,4.7251 2.80367,6.8957 0.87033,2.0547 1.54204,4.1944 2.86102,6.025 1.1925,2.2895 2.79968,4.3371 4.05974,6.5917 1.50907,2.395 2.78443,4.9342 4.28915,7.3345 1.53318,2.6024 2.75273,5.3794 4.32891,7.9611 1.54016,2.3612 3.20796,4.6085 5.0193,6.7708 1.94521,2.1995 3.92561,4.3661 5.78641,6.6373 1.97161,2.125 3.73126,4.4305 5.58147,6.6605 1.58579,1.9957 3.14603,4.0172 4.81,5.9458 1.88537,1.9913 3.88839,3.872 5.60986,6.0133 1.68113,2.2818 3.17679,4.6613 4.72597,7.0342 1.83005,2.5596 3.53082,5.223 5.9842,7.2596 2.24741,1.9462 4.66844,3.7043 7.32375,5.0561 2.53887,1.2261 5.21994,2.0358 7.85503,3.0237 2.61299,1.0163 5.05307,2.4108 7.72803,3.239 3.4128,0.7962 6.84846,1.5467 10.37041,1.6136 3.45235,0 6.90635,-0.022 10.35654,0.1229 3.00666,0.1725 6.00307,0.5174 8.89805,1.3918 2.80259,0.7806 5.65418,1.374 8.41122,2.3182 2.57011,0.7983 5.02553,1.9131 7.37419,3.2272 2.3113,1.1795 4.73841,2.1434 6.87134,3.6502 2.21288,1.3533 4.20242,3.0118 6.221,4.6357 2.05072,1.4736 4.1247,2.9119 6.13124,4.4463 2.24322,1.4383 4.61689,2.5765 7.00008,3.7653 2.60195,1.1906 5.33274,1.9464 8.11234,2.61 2.92984,0.6114 5.91695,1.0869 8.91828,1.0087 4.39657,0.015 8.7938,0.029 13.18937,-0.085 4.46549,-0.1537 8.96713,-0.3093 13.33701,-1.3276 3.44339,-0.759 6.95581,-1.167 10.37908,-2.0334 3.62193,-0.6728 7.25588,-1.2026 10.9455,-1.3 5.33961,-0.4192 10.67875,-1.0496 16.04317,-0.9382 6.52899,0 13.05798,0.014 19.58696,0.023 7.73766,0.01 15.47544,-0.011 23.21299,0.035 5.32083,0.065 10.67163,0.086 15.93526,0.9673 3.8278,0.6886 7.66554,1.3349 11.46403,2.1695 4.72076,0.9842 9.4423,1.9593 14.15416,2.9874 6.1319,0.9951 12.2834,1.8494 18.48444,2.282 5.80119,0.3171 11.6229,0.2769 17.41123,0.8456 7.12692,0.6777 14.23447,1.5671 21.39628,1.8177 7.61334,0.4303 15.22914,0.4202 22.84613,0.7452 5.10844,0.3111 10.19947,1.004 15.32254,0.9612 3.75411,-0.01 7.508083,10e-5 11.262143,0.022 6.34111,0 12.685531,-0.071 19.014966,-0.4941 8.219809,-0.6117 16.473212,-1.4236 24.463156,-3.5441 0,0 -16.78222,12.8893 -16.78222,12.8893 z"
       inkscape:connector-curvature="0" />
    <path
       style="fill:#ff0000;fill-opacity:0"
       id="path3053"
       d="m -67.790964,1201.8791 c -6.486267,-2.7706 -13.379425,-4.3866 -20.128125,-6.3721 -4.708307,-1.2422 -9.467936,-2.3216 -14.238421,-3.3077 -3.59774,-0.5211 -7.19246,-0.8241 -10.71494,-1.7699 -3.70393,-0.7336 -7.27374,-1.962 -10.97863,-2.6879 -3.99692,-0.6224 -8.06391,-0.5796 -12.0987,-0.6213 -4.42874,-0.01 -8.85743,0.01 -13.2862,0.01 -5.11736,-0.01 -10.23469,-0.012 -15.35204,0.01 -4.30122,-0.2507 -8.53718,0.4945 -12.79282,0.9787 -3.5021,0.4892 -6.94401,1.2685 -10.48166,1.5826 -5.28885,0.7829 -10.53162,1.7875 -15.8443,2.4192 -4.29072,0.5 -8.60592,0.6996 -12.92231,0.7748 -3.07445,0.03 -6.14928,0.025 -9.22371,0 -7.23788,-0.2033 -14.3454,-1.8685 -21.51988,-2.7883 -8.80623,-1.1284 -17.55945,-2.6242 -26.37921,-3.6468 -5.21947,-0.5859 -10.47032,-0.7213 -15.71727,-0.7679 -10.06622,-0.9324 -20.17764,-1.1608 -30.27903,-1.3704 -12.6662,0.021 -25.31286,-0.2895 -37.96517,-0.8396 -6.38221,-0.3044 -12.768,-0.5088 -19.15671,-0.5967 -7.08283,0.019 -14.14519,-0.1226 -21.21417,-0.559 -6.93129,-0.4522 -13.87267,-0.7128 -20.81703,-0.8361 -4.13346,-0.052 -8.26733,-0.061 -12.40105,-0.053 -3.38078,0.2909 -6.63696,-0.2175 -9.95306,-0.7582 -3.9214,-1.2002 -8.0411,-1.3189 -12.03487,-2.1068 -4.10781,-0.6502 -7.90857,-2.0907 -11.61607,-3.9172 -4.07164,-2.1014 -8.11877,-4.2412 -11.86813,-6.8841 -2.95595,-2.2655 -5.45806,-5.0834 -7.99413,-7.7999 -1.94353,-1.6302 -3.49175,-3.6669 -5.36821,-5.3588 -2.38662,-2.6295 -4.79235,-5.2403 -7.24404,-7.8093 -2.78549,-3.1729 -5.37063,-6.5195 -8.14978,-9.6943 -2.04571,-2.75 -4.3644,-5.2764 -6.49686,-7.9542 -2.73363,-3.3215 -5.44458,-6.6474 -7.96605,-10.1346 -3.53554,-4.8823 -7.21346,-9.6561 -10.91285,-14.4149 -3.47824,-4.034 -6.39016,-8.4915 -9.21057,-12.9949 -1.85124,-2.9045 -3.40856,-5.9476 -4.72437,-9.1291 -1.48826,-3.2091 -2.40105,-6.6386 -3.50244,-9.9918 -1.44384,-3.9857 -1.97583,-8.1857 -2.28559,-12.3878 -0.39712,-4.7246 -0.1803,-9.4126 0.51974,-14.0928 0.76931,-4.9719 1.70763,-9.9023 3.04878,-14.7523 1.34559,-4.8254 3.61731,-9.2889 5.94225,-13.6981 3.27839,-6.1978 7.19191,-12.0173 11.06088,-17.85374 3.04653,-4.33664 5.88593,-8.80564 8.99738,-13.0957 2.35331,-3.23218 4.73273,-6.44334 7.03318,-9.71394 2.0819,-3.08123 4.02844,-6.25443 5.90046,-9.46708 1.30079,-2.21391 2.54765,-4.47273 3.61016,-6.8121 1.2697,-2.94684 2.46451,-5.92533 3.72851,-8.87472 1.46259,-3.35049 2.56008,-6.85223 3.72156,-10.31634 1.06301,-3.62947 1.99897,-7.30299 2.63094,-11.03328 0.5763,-3.34522 0.50658,-6.74734 0.81112,-10.1156 0.45708,-2.7313 1.05537,-5.40731 0.45377,-8.15469 -0.75298,-2.73029 -1.80726,-5.34354 -2.85233,-7.96748 -0.70959,-1.51745 -1.31955,-3.07275 -1.89587,-4.6442 0,0 18.55021,-10.27156 18.55021,-10.27156 l 0,0 c 0.54555,1.5567 1.13103,3.09506 1.86447,4.57584 1.08338,2.70588 2.21617,5.38704 3.02422,8.1957 0.8243,2.97635 0.60859,5.88962 -0.11814,8.87612 -0.57579,3.35985 -0.22394,6.82841 -0.83992,10.19719 -0.56093,3.83796 -1.46866,7.59403 -2.48141,11.33609 -1.12359,3.52713 -2.30756,7.04741 -3.59568,10.51056 -1.37578,2.89185 -2.52727,5.90083 -3.65439,8.88425 -1.17157,2.36653 -2.21421,4.77035 -3.55017,7.05549 -2.09561,3.12291 -3.7993,6.50082 -5.93652,9.61235 -2.30711,3.25342 -4.54456,6.55414 -6.99032,9.70661 -3.07604,4.37944 -6.24162,8.68803 -9.23443,13.13142 -3.88418,5.73448 -7.7501,11.49841 -11.03411,17.60381 -2.28311,4.2987 -4.63924,8.585 -6.05714,13.2686 -1.41673,4.7767 -2.54527,9.6083 -3.19031,14.558 -0.85019,4.505 -1.04554,9.0532 -0.70344,13.628 0.25759,4.0296 0.6655,8.0731 2.054,11.8973 1.13655,3.292 1.99533,6.6893 3.48585,9.8461 1.25035,3.0829 2.73227,6.0323 4.47303,8.869 2.73315,4.4646 5.56904,8.8763 8.97494,12.8695 3.73068,4.7651 7.39792,9.5787 11.04087,14.4109 2.55057,3.4232 5.23863,6.7302 7.96555,10.0139 2.17534,2.6223 4.46723,5.1485 6.48214,7.9021 2.67888,3.2101 5.26911,6.4965 8.07301,9.6027 2.43505,2.5439 4.8118,5.1434 7.27339,7.6614 1.8351,1.7963 3.52528,3.738 5.3958,5.5014 2.43353,2.6078 4.79257,5.3571 7.69918,7.4509 3.69782,2.5202 7.64771,4.6431 11.66922,6.5996 3.62452,1.6456 7.36787,2.8402 11.31812,3.439 4.03258,0.6338 8.08507,1.1255 12.07053,2.039 3.22397,0.5107 6.44258,0.6247 9.70732,0.5196 4.11966,0.011 8.24027,0 12.35798,0.15 6.90328,0.2339 13.8009,0.5884 20.69546,1.0064 7.11469,0.3841 14.22511,0.372 21.34869,0.3592 6.30267,0.1407 12.59678,0.497 18.88964,0.8672 12.55866,0.6659 25.12087,0.9052 37.69699,0.9563 10.27432,0.1559 20.54503,0.3657 30.80396,0.9783 5.26086,0.093 10.51762,0.3212 15.73663,1.043 8.75155,1.1865 17.45638,2.6904 26.22408,3.7643 7.21514,0.9335 14.41657,2.4619 21.7191,2.3202 3.06828,-0.017 6.13686,0.014 9.20489,-0.041 4.22923,-0.1004 8.45737,-0.3232 12.65697,-0.8564 5.34403,-0.722 10.63001,-1.7849 15.97849,-2.4759 3.5042,-0.4632 6.95022,-1.269 10.47325,-1.5859 4.28055,-0.4884 8.55886,-0.9558 12.87748,-0.7441 5.12037,0.016 10.24072,0.01 15.36107,-0.016 4.4282,-0.017 8.8565,-0.031 13.2845,0.03 4.15307,0.058 8.3564,0.014 12.43524,0.9042 3.66992,0.8696 7.272697,2.0033 10.974234,2.7472 3.545663,0.7421 7.158764,0.9646 10.698465,1.7339 4.737309,1.107 9.50145,2.1318 14.160042,3.5403 6.818571,2.013 13.688181,3.881 20.35165,6.3786 0,0 -17.536815,11.8295 -17.536815,11.8295 z"
       inkscape:connector-curvature="0" />
    <path
       style="fill:none;stroke:#000000;stroke-width:10.2;stroke-linecap:round;stroke-linejoin:round;stroke-opacity:1;stroke-miterlimit:4;stroke-dasharray:none;marker-start:none"
       d="m -49.408266,1196.4028 c -114.712744,-5.8735 -232.707664,-10.6529 -363.448874,-11.1835 -150.81809,-63.0244 -172.19829,-159.1608 -91.42857,-281.42855 -75.63308,-177.85395 4.20627,-249.5316 148.57142,-277.14285 37.80979,-58.81829 6.47304,-186.44155 260.000004,-182.85715 C 34.851407,342.63792 147.84529,405.48868 262.85714,449.50504 809.81295,220.27475 969.94035,981.79511 445.71429,903.79075 l 0,-1.42857"
       id="path3057"
       inkscape:connector-curvature="0"
       sodipodi:nodetypes="cccccccc" />
    <path
       style="fill:none;stroke:#000000;stroke-width:9;stroke-linecap:round;stroke-linejoin:round;stroke-opacity:1;stroke-miterlimit:4;stroke-dasharray:none"
       d="m 278.8021,682.64635 c 24.79296,127.79716 68.96295,244.8293 189.90868,319.20825 306.82526,286.1119 213.89899,422.3171 290.92393,622.2539 C 687.32202,1446.7162 652.69215,1244.2021 474.7717,1137.215 335.97485,1080.6229 318.60994,940.94587 276.7818,818.00679"
       id="path3059"
       inkscape:connector-curvature="0"
       sodipodi:nodetypes="ccccc" />
    <path
       style="fill:none;stroke:#000000;stroke-width:9;stroke-linecap:round;stroke-linejoin:round;stroke-opacity:1;stroke-miterlimit:4;stroke-dasharray:none"
       d="m -242.43661,678.60574 305.066068,8.08122 -6.060915,119.198 -301.025463,-12.12183 z"
       id="path3061"
       inkscape:connector-curvature="0" />
    <path
       style="fill:none;stroke:#000000;stroke-width:9;stroke-linecap:round;stroke-linejoin:round;stroke-opacity:1;stroke-miterlimit:4;stroke-dasharray:none"
       d="m -357.594,882.65656 185.86807,2.0203 4.04061,123.23864 -189.90868,-4.0406 z"
       id="path3063"
       inkscape:connector-curvature="0" />
    <path
       style="fill:none;stroke:#000000;stroke-width:9;stroke-linecap:round;stroke-linejoin:round;stroke-opacity:1;stroke-miterlimit:4;stroke-dasharray:none"
       d="m -48.487322,947.30632 193.949292,4.04061 -2.02031,115.15737 -191.928982,-2.0203 z"
       id="path3065"
       inkscape:connector-curvature="0" />
    <path
       style="fill:none;stroke:#000000;stroke-width:9;stroke-linecap:round;stroke-linejoin:round;stroke-opacity:1;stroke-miterlimit:4;stroke-dasharray:none"
       d="m -210.11173,882.65656 c 5.45398,-34.6148 25.56701,-65.04131 68.69037,-88.89343"
       id="path3067"
       inkscape:connector-curvature="0"
       sodipodi:nodetypes="cc" />
    <text
       xml:space="preserve"
       style="font-size:144px;font-style:italic;font-variant:normal;font-weight:normal;font-stretch:normal;text-align:start;line-height:125%;letter-spacing:0px;word-spacing:0px;writing-mode:lr-tb;text-anchor:start;fill:#000000;fill-opacity:1;stroke:none;font-family:URW Bookman L;-inkscape-font-specification:URW Bookman L Italic"
       x="-34.285732"
       y="1295.2194"
       id="text3069"
       sodipodi:linespacing="125%"><tspan
         sodipodi:role="line"
         id="tspan3071"
         x="-34.285732"
         y="1295.2194">Orgpad</tspan></text>
  </g>
</svg>
