<?xml version="1.0" encoding="UTF-8" standalone="no"?>
<!-- Created with Inkscape (http://www.inkscape.org/) -->

<svg
   xmlns:dc="http://purl.org/dc/elements/1.1/"
   xmlns:cc="http://creativecommons.org/ns#"
   xmlns:rdf="http://www.w3.org/1999/02/22-rdf-syntax-ns#"
   xmlns:svg="http://www.w3.org/2000/svg"
   xmlns="http://www.w3.org/2000/svg"
   xmlns:xlink="http://www.w3.org/1999/xlink"
   xmlns:sodipodi="http://sodipodi.sourceforge.net/DTD/sodipodi-0.dtd"
   xmlns:inkscape="http://www.inkscape.org/namespaces/inkscape"
   width="744.09448819"
   height="1052.3622047"
   id="svg2"
   version="1.1"
   inkscape:version="0.48.4 r9939"
   sodipodi:docname="orgpad.svg">
  <defs
     id="defs4" />
  <sodipodi:namedview
     id="base"
     pagecolor="#ffffff"
     bordercolor="#666666"
     borderopacity="1.0"
     inkscape:pageopacity="0.0"
     inkscape:pageshadow="2"
     inkscape:zoom="0.35"
     inkscape:cx="-595.58926"
     inkscape:cy="626.82952"
     inkscape:document-units="px"
     inkscape:current-layer="layer1"
     showgrid="false"
     inkscape:window-width="3200"
     inkscape:window-height="1700"
     inkscape:window-x="0"
     inkscape:window-y="28"
     inkscape:window-maximized="1" />
  <metadata
     id="metadata7">
    <rdf:RDF>
      <cc:Work
         rdf:about="">
        <dc:format>image/svg+xml</dc:format>
        <dc:type
           rdf:resource="http://purl.org/dc/dcmitype/StillImage" />
        <dc:title></dc:title>
      </cc:Work>
    </rdf:RDF>
  </metadata>
  <g
     inkscape:groupmode="layer"
     id="layer2"
     inkscape:label="BG"
     style="display:none">
    <image
       y="-634.7807"
       x="-1256.3572"
       id="image3048"
       xlink:href="file:///home/tomby/Downloads/matous.lomnicky_2016-05-11_09-10-45_2.jpg"
       height="2480"
       width="3507" />
  </g>
  <g
     inkscape:label="Layer 1"
     inkscape:groupmode="layer"
     id="layer1"
     style="display:inline">
    <path
       style="fill:#ff0000;fill-opacity:0"
       id="path3051"
       d="m 294.35068,427.6169 c -3.42315,0.7099 -6.90481,1.0495 -10.38774,1.2894 -2.72758,0.1571 -5.46042,0.2001 -8.19196,0.2238 -1.59816,0.014 -3.19633,0 -4.79448,-0.01 -2.16848,-0.066 -4.3258,-0.3526 -6.49451,-0.4787 -3.21473,-0.1015 -6.42484,-0.1621 -9.63554,-0.361 -3.0638,-0.09 -6.10073,-0.4984 -9.15179,-0.7551 -2.46054,-0.2331 -4.93731,-0.1208 -7.3968,-0.3346 -2.64226,-0.1912 -5.25316,-0.6299 -7.8652,-1.054 -2.00994,-0.5515 -4.09978,-0.762 -6.11706,-1.2621 -1.60907,-0.2983 -3.21229,-0.6231 -4.82806,-0.888 -2.1931,-0.2975 -4.41187,-0.308 -6.6209,-0.3409 -3.27438,-0.034 -6.54902,-0.028 -9.82352,-0.022 -2.78493,0.01 -5.56986,0.016 -8.3548,0.019 -2.27547,-0.012 -4.53892,0.3002 -6.80509,0.4818 -1.54637,0.059 -3.08506,0.2929 -4.58943,0.6555 -1.46846,0.3328 -2.94915,0.5342 -4.41155,0.8869 -1.89187,0.3077 -3.81275,0.3481 -5.72499,0.3879 -1.88195,0.032 -3.76429,0.036 -5.64647,0.04 -1.30729,-0.063 -2.69712,-0.1943 -3.94867,-0.6059 -1.23926,-0.2445 -2.38752,-0.7041 -3.52593,-1.2329 -1.05896,-0.5032 -2.04169,-1.08 -3.03673,-1.6963 -0.84859,-0.6763 -1.72847,-1.3148 -2.62925,-1.9184 -0.82367,-0.6876 -1.62927,-1.4095 -2.58744,-1.9031 -0.89219,-0.6656 -1.97376,-0.973 -2.91992,-1.5411 -0.95931,-0.5089 -1.94234,-0.9467 -3.00351,-1.1902 -1.16643,-0.4177 -2.37762,-0.66 -3.56891,-0.9929 -1.1926,-0.3199 -2.42657,-0.3871 -3.65416,-0.428 -1.45443,-0.031 -2.9094,-0.027 -4.36409,-0.024 -1.5388,-0.1286 -3.02021,-0.5178 -4.52191,-0.8462 -1.10488,-0.5478 -2.24286,-1.0047 -3.37775,-1.4886 -1.17196,-0.3342 -2.27617,-0.7995 -3.37042,-1.327 -1.15907,-0.6719 -2.23723,-1.465 -3.22939,-2.3647 -1.07832,-0.9192 -1.81258,-2.1225 -2.64581,-3.245 -0.65787,-1.0064 -1.29443,-2.0111 -2.0096,-2.9767 -0.7292,-0.8656 -1.56066,-1.6332 -2.32822,-2.4627 -0.69695,-0.8602 -1.40778,-1.7114 -2.09109,-2.5829 -0.75458,-0.9395 -1.48407,-1.8967 -2.31231,-2.7728 -0.78819,-0.9784 -1.64293,-1.896 -2.46976,-2.8425 -0.79765,-0.9521 -1.52952,-1.9407 -2.20144,-2.9855 -0.68039,-1.1017 -1.18426,-2.3021 -1.85471,-3.4074 -0.64752,-1.0028 -1.16033,-2.0883 -1.8104,-3.0876 -0.553856,-0.9765 -1.241576,-1.8692 -1.768816,-2.8593 -0.58185,-0.7907 -0.87625,-1.7266 -1.25792,-2.6188 -0.51824,-0.9344 -0.80373,-1.9631 -1.19636,-2.9508 -0.52747,-0.8184 -0.85655,-1.7416 -1.35078,-2.5766 -0.47827,-0.9026 -1.00799,-1.7711 -1.34101,-2.7407 -0.41381,-1.0289 -0.62856,-2.1149 -0.98722,-3.1613 -0.30361,-1.0952 -0.6522,-2.1782 -0.89697,-3.289 -0.23425,-1.197 -0.48044,-2.3965 -0.77075,-3.5815 -0.34582,-1.1365 -0.48008,-2.316 -0.80979,-3.4552 -0.32249,-1.0695 -0.41043,-2.1838 -0.64877,-3.2718 -0.28871,-1.2025 -0.4017,-2.4331 -0.46823,-3.6648 -0.0508,-1.2196 -0.0481,-2.4406 -0.0484,-3.661 0.0109,-1.185 -0.0612,-2.3699 0.13211,-3.543 0.24736,-1.02327 0.3013,-2.07772 0.5534,-3.09849 0.1994,-0.96961 0.50977,-1.90083 0.84089,-2.83154 0.38768,-0.91832 0.7946,-1.80267 1.39331,-2.60244 1.00781,-1.35422 2.18074,-2.55381 3.43745,-3.67414 1.24092,-0.99375 2.47594,-1.99134 3.64298,-3.07214 0.79319,-0.69416 1.711816,-1.22206 2.505046,-1.91444 0.83989,-0.61815 1.70875,-1.18309 2.48421,-1.88634 0.99709,-0.83703 1.95251,-1.7315 2.83458,-2.6895 1.03175,-1.10685 1.76445,-2.4209 2.51815,-3.7188 0.73,-1.16627 1.27957,-2.42506 1.83137,-3.68126 0.52928,-1.17227 1.02973,-2.3565 1.53691,-3.53829 0.59913,-1.29558 0.87402,-2.67169 1.03541,-4.07927 0.16204,-1.87941 -1.0293,-3.20973 -2.29937,-4.42262 -1.39014,-1.39116 -3.08851,-2.38566 -4.67586,-3.52657 -1.20665,-0.70896 -2.38632,-1.44816 -3.55627,-2.21378 -0.86912,-0.65899 -1.62916,-1.379 -2.26109,-2.27178 -0.812066,-1.04783 -1.219896,-2.27032 -1.461226,-3.55511 -0.30342,-1.21179 -0.5371,-2.43263 -0.66852,-3.67479 -0.1081,-1.22346 -0.11412,-2.45265 -0.12036,-3.67991 -0.0648,-1.25038 0.0374,-2.47695 0.24449,-3.70805 0.23702,-1.19831 0.25563,-2.4215 0.38951,-3.63136 0.23313,-1.19367 0.41117,-2.39273 0.5058,-3.60518 0.19041,-1.23356 0.39066,-2.46805 0.60998,-3.69734 0.310536,-1.20384 0.462326,-2.43801 0.743346,-3.64762 0.22699,-1.21984 0.57416,-2.4114 0.83733,-3.62284 0.23558,-1.17428 0.27824,-2.3732 0.30679,-3.5668 0.0188,-1.20993 0.013,-2.42008 0.0108,-3.63011 -0.002,-1.21305 -0.004,-2.42611 -0.004,-3.63916 0.0144,-1.34717 0.0477,-2.68578 -0.13783,-4.02239 -0.15032,-1.27364 -0.38704,-2.52506 -0.65921,-3.77695 -0.25584,-1.14381 -0.26766,-2.31631 -0.52979,-3.4573 -0.28692,-1.08463 -0.38835,-2.20059 -0.45012,-3.31676 -0.095,-1.15444 -0.0445,-2.28504 0.18132,-3.4185 0.22758,-0.94825 0.63944,-1.83676 1.09556,-2.69382 0.64261,-1.21832 1.28568,-2.43766 1.97851,-3.62881 0.83618,-1.22632 1.59382,-2.50521 2.4442,-3.72143 0.93294,-1.43171 1.94531,-2.807 2.96817,-4.17504 0.68404,-0.93492 1.43284,-1.81152 2.26197,-2.61897 1.00143,-1.02212 2.03145,-2.01823 3.07437,-2.99887 1.42371,-1.27311 2.8668,-2.52152 4.39999,-3.66126 1.92417,-1.4734 3.96059,-2.77184 6.02868,-4.02899 1.9256,-1.18595 3.8332,-2.40106 5.74458,-3.60996 1.97134,-1.2955 3.99988,-2.49645 6.01294,-3.72426 3.76218,-2.57859 7.81436,-4.69481 11.8252,-6.84623 1.36682,-0.73748 2.86489,-1.15421 4.29701,-1.74041 0.25826,-0.0942 0.52345,-0.17135 0.77479,-0.28275 0.41259,-0.22167 0.81995,-0.4522 1.25007,-0.63948 0.56499,-0.246 1.15727,-0.38457 1.7274,-0.61831 0.19159,-0.0637 0.39074,-0.10808 0.57477,-0.19113 2.25779,-1.01889 -1.27642,0.4259 0.95706,-0.51786 0.52024,-0.21984 1.08408,-0.33115 1.62035,-0.50595 2.30073,-0.4505 4.65849,-0.49518 6.99495,-0.56612 2.81779,0.0156 5.62196,-0.26792 8.43187,-0.44108 2.20919,0.009 4.37938,-0.36279 6.56228,-0.6404 2.83017,-0.78876 7.85875,-3.79372 -5.81029,3.49684 -0.26979,0.1439 0.49012,-0.36699 0.71814,-0.5707 0.60744,-0.54269 0.85858,-0.89022 1.39326,-1.52485 1.32406,-1.65608 2.46429,-3.44309 3.53467,-5.26973 0.78197,-1.49846 1.68264,-2.92793 2.56909,-4.36559 0.85581,-1.39759 1.70317,-2.80206 2.59189,-4.1791 1.09467,-1.51942 1.9901,-3.16269 2.95281,-4.76515 0.93294,-1.533 1.67248,-3.16473 2.44692,-4.77908 1.01728,-2.0381 1.89301,-4.1417 2.88108,-6.19383 0.83822,-1.69017 1.62048,-3.40743 2.4773,-5.08839 0.75815,-1.42595 1.35912,-2.92529 1.97206,-4.41668 0.67535,-1.38893 1.40503,-2.74048 2.29381,-4.00447 0.89561,-1.44196 1.86857,-2.82414 2.91441,-4.1611 0.96076,-1.17578 1.88622,-2.37542 2.88751,-3.51745 1.00297,-0.99114 2.06202,-1.92359 3.08723,-2.89183 1.2611,-1.29522 2.76341,-2.31193 4.21994,-3.37014 1.71786,-1.14497 3.38036,-2.36884 5.07969,-3.54012 4.36718,-2.88944 8.89975,-5.53871 13.56254,-7.92237 3.39285,-1.64441 6.91126,-3.03637 10.47639,-4.26021 2.63827,-0.86357 5.27971,-1.74712 7.96397,-2.45979 2.25445,-0.7514 4.57947,-1.2569 6.91883,-1.66087 2.602,-0.3145 5.1397,-0.94314 7.6795,-1.5667 3.11645,-0.80454 6.27113,-1.48463 9.37918,-2.32224 2.9948,-0.94122 6.0383,-1.69829 9.08756,-2.45156 4.89196,-1.16912 9.78848,-2.3404 14.7242,-3.3093 5.1277,-1.10961 10.22013,-2.38264 15.27716,-3.7779 2.17786,-0.57562 4.31071,-1.29501 6.49977,-1.82662 8.38492,-1.35095 16.84207,-2.22363 25.25845,-3.37034 5.41951,-0.64083 10.78842,-1.61163 16.08964,-2.89755 1.8462,-0.38848 3.66094,-0.89205 5.48368,-1.37566 2.47906,-0.44751 4.973,-0.78676 7.48144,-1.01983 2.78381,-0.43402 5.61725,-0.47136 8.39881,-0.89836 2.70745,-0.46258 5.4692,-0.37388 8.19871,-0.62061 2.41377,-0.28294 4.83667,-0.45712 7.26517,-0.53203 2.16003,-0.24422 3.96228,0.1768 5.99225,0.84052 2.18013,0.68544 4.40472,1.3159 6.46561,2.31763 1.26157,0.53612 2.31813,1.42632 3.32629,2.33702 1.5698,1.33008 3.18811,2.59778 4.78152,3.89914 1.4996,1.37589 3.14646,2.56653 4.74076,3.8234 1.34453,0.85984 2.57521,1.86712 3.80789,2.87706 1.38756,1.02005 2.70047,2.10686 3.98277,3.25666 1.25019,0.9959 2.50545,1.99836 3.65514,3.1102 1.02252,1.01145 2.38114,1.46729 3.63476,2.09545 1.11163,0.42865 2.16357,0.96343 3.22927,1.49153 1.00693,0.45057 1.88658,0.53412 2.94763,0.30559 2.74831,-1.77841 0.0314,-0.0101 -7.00694,3.92847 -0.15607,0.0873 0.30778,-0.18358 0.45075,-0.29103 0.43958,-0.33037 0.78812,-0.76441 1.15664,-1.16764 0.73752,-1.0352 1.60934,-1.92414 2.6064,-2.70688 1.22756,-0.93658 2.40472,-1.93311 3.58606,-2.92643 1.04847,-0.88724 2.11699,-1.74992 3.18075,-2.61881 0.99373,-0.80082 1.98178,-1.60943 3.02577,-2.34464 1.08913,-0.77246 2.14238,-1.5939 3.19203,-2.41869 3.15388,-2.85315 7.19812,-4.4417 10.99387,-6.25834 1.61836,-0.76661 3.35428,-1.12568 5.05705,-1.62978 1.78631,-0.64984 3.5975,-0.95243 5.48399,-1.1116 2.65303,-0.23589 5.29905,-0.17431 7.94982,0.0147 2.99731,0.21892 5.97657,0.61736 8.97497,0.83652 1.99605,0.0802 3.96349,0.45097 5.95031,0.64092 1.26955,0.10985 2.54448,0.11866 3.81781,0.1242 1.29387,-0.001 2.58773,10e-4 3.8816,4.3e-4 1.63225,-0.0827 3.25624,-0.33905 4.89105,-0.46414 1.86115,-0.0668 3.7092,-0.13211 5.5598,-0.34151 2.31586,-0.27348 4.65264,-0.15331 6.97666,-0.23573 1.61904,-0.0574 4.80976,-0.29207 6.39784,-0.40182 3.41237,-0.0909 6.81591,-0.71791 10.2317,-0.73323 1.60084,-0.007 3.8431,0.22785 5.38051,0.35955 6.72205,0.594 13.46469,1.2108 20.11113,2.40844 5.13529,1.20167 10.13567,2.9016 15.22288,4.28403 2.66397,0.71484 5.40511,1.20837 8.00928,2.13839 1.07135,0.38261 1.89473,0.7955 2.91951,1.27426 2.44005,1.3664 4.79786,2.87566 7.12458,4.42563 1.92903,1.20566 3.49035,2.84596 5.12357,4.40389 1.72271,1.63595 3.40556,3.31312 5.09715,4.98105 1.33912,1.64194 2.89833,3.05014 4.46928,4.45796 1.08472,0.90925 1.93659,2.04457 2.92394,3.04752 1.00143,1.08597 1.71597,2.38162 2.53964,3.59796 1.17416,1.9088 2.6403,3.60466 4.1349,5.26476 1.67747,1.74751 3.33077,3.51968 5.02511,5.25 1.51511,1.54177 2.70346,3.34598 4.09452,4.99182 1.38388,1.47081 2.56928,3.10308 3.7802,4.71362 0.99395,1.3556 2.20662,2.52498 3.28513,3.80814 0.94112,1.18766 1.75472,2.46309 2.71133,3.64072 1.14362,1.23711 1.98026,2.7066 2.87998,4.11968 1.08877,1.79966 2.02859,3.68292 3.04802,5.52217 1.34395,2.39196 2.19726,5.02543 3.06522,7.61801 0.81918,2.47152 1.65308,4.93537 2.33039,7.45078 0.52993,1.78285 1.06798,3.56465 1.52737,5.36727 0.34117,1.47145 0.66734,2.94651 1.06732,4.40346 0.46821,1.6053 0.55077,3.27731 0.60902,4.93743 0.048,2.18579 0.0408,4.37228 0.0395,6.55846 -0.018,1.80613 0.0715,3.61393 -0.0476,5.41713 -0.15017,1.83594 -0.54292,3.63815 -0.894,5.44317 -0.49134,2.72907 -1.0235,5.44655 -1.74428,8.1249 -0.87808,3.01826 -1.75788,6.03606 -2.62619,9.05731 -0.81071,2.80829 -1.63908,5.60763 -2.54985,8.3852 -0.8701,2.22094 -1.36056,4.5492 -1.82473,6.87999 -0.44413,2.23065 -1.07592,4.41639 -1.8182,6.5644 -0.60087,1.71259 -1.24326,3.4104 -1.86254,5.11654 -0.77178,1.84203 -1.2588,3.78129 -1.88265,5.67413 -0.43789,1.4962 -1.04136,2.92208 -1.66776,4.34611 -0.77101,1.56944 -1.42586,3.19069 -2.13593,4.78762 -0.6248,1.53343 -1.32033,3.01639 -2.19055,4.42547 -1.13325,1.7377 -2.22063,3.50469 -3.38727,5.22041 -1.18359,1.8078 -2.48951,3.52044 -3.96623,5.09731 -1.50139,1.5728 -3.1317,2.98895 -4.84739,4.32042 -1.89082,1.48368 -3.9247,2.76719 -5.93727,4.07575 -4.45245,2.99978 -9.17027,5.53491 -14.052,7.72542 -2.65778,0.99749 -5.39848,1.74705 -8.16548,2.37416 -2.85534,0.59204 -5.73147,1.06184 -8.59738,1.59704 -2.26705,0.59494 -4.59373,0.8809 -6.89812,1.28614 -1.66286,0.30687 -3.34528,0.46423 -5.034,0.51053 -1.5301,0.069 -3.06705,-0.0756 -4.5875,0.12216 -1.54955,0.25785 -3.11272,0.37618 -4.6801,0.44892 -1.53394,0.1637 -3.09111,0.33494 -4.61351,0.61636 -1.76457,0.40954 -3.58928,0.39226 -5.36589,0.69494 -1.73725,0.23903 -3.45897,0.55657 -5.19305,0.81819 -2.14528,0.25882 -4.31016,0.29198 -6.46841,0.32058 -2.21535,0.0271 -4.43094,0.0165 -6.64639,0.0127 -2.36494,-0.003 -4.72989,-0.009 -7.09484,-0.004 -1.9837,-0.0228 -3.95053,0.3074 -5.92305,0.48542 -1.67543,0.11963 -3.35578,0.12319 -5.03452,0.13358 -1.51525,0.0106 -3.03052,0.007 -4.54578,0.005 -1.51423,0.0453 -3.03869,-0.13957 -4.50408,-0.52091 -0.23509,-0.0607 -0.47017,-0.12137 -0.70525,-0.18206 0,0 7.40645,-5.10882 7.40645,-5.10882 l 0,0 c 0.23025,0.0556 0.4605,0.11117 0.69075,0.16676 1.44952,0.27291 2.91143,0.42186 4.38857,0.35946 1.5095,10e-4 3.01901,0.004 4.52849,-0.002 1.66657,-0.0167 3.33509,-0.0442 4.99572,-0.19825 1.974,-0.1849 3.94834,-0.44915 5.93554,-0.3923 2.3645,0.007 4.72902,0.004 7.09353,0.005 2.21269,-4e-5 4.42547,0.002 6.63801,-0.0268 2.14386,-0.0468 4.2958,-0.10156 6.41796,-0.43726 1.73458,-0.28332 3.46745,-0.57073 5.20871,-0.81156 1.78774,-0.19909 3.58219,-0.34773 5.34822,-0.70789 1.55684,-0.22483 3.11445,-0.496 4.6885,-0.55025 1.55892,-0.0961 3.10599,-0.28608 4.65648,-0.46996 1.53866,-0.0764 3.08027,-0.0204 4.61957,-0.0939 1.65165,-0.0934 3.29576,-0.27218 4.92361,-0.5736 2.29926,-0.39322 4.60604,-0.7387 6.87707,-1.28105 2.84827,-0.51262 5.70653,-0.97064 8.53155,-1.60554 2.74586,-0.68513 5.48789,-1.42733 8.09803,-2.53713 1.12625,-0.51344 2.25044,-1.02324 3.34316,-1.60608 0.35444,-0.18905 1.40096,-0.78664 1.05505,-0.58241 -7.94552,4.69128 -8.65596,5.15835 -5.66126,3.25939 2.00111,-1.3209 4.06583,-2.5533 5.96586,-4.02073 1.73199,-1.28381 3.38231,-2.64801 4.8847,-4.19664 1.53705,-1.48222 2.85259,-3.16496 4.01711,-4.95437 1.19858,-1.67911 2.26907,-3.44107 3.37639,-5.18058 0.91104,-1.3528 1.64986,-2.765 2.24806,-4.28329 0.65864,-1.62022 1.40444,-3.21015 2.12407,-4.80607 0.65405,-1.3956 1.27327,-2.7999 1.71428,-4.28007 0.70006,-1.87402 1.12189,-3.8359 1.87553,-5.69151 0.65485,-1.69236 1.22998,-3.41454 1.8803,-5.10856 0.77315,-2.10664 1.4576,-4.24799 1.89073,-6.45341 0.46475,-2.36401 0.89875,-4.74898 1.80397,-6.99419 0.93177,-2.76775 1.78189,-5.55448 2.58711,-8.36158 0.86224,-3.02092 1.76529,-6.02947 2.62912,-9.04937 0.74839,-2.64077 1.28309,-5.32813 1.71627,-8.03756 0.35465,-1.77146 0.69755,-3.54892 0.91507,-5.34269 0.18424,-1.78003 0.053,-3.57811 0.11019,-5.36533 0.002,-2.17354 0.0113,-4.34753 -0.0423,-6.52058 -0.0569,-1.59019 -0.11684,-3.19544 -0.53952,-4.73954 -0.39778,-1.46606 -0.75312,-2.94309 -1.06873,-4.42846 -0.42851,-1.80824 -0.97204,-3.5881 -1.48014,-5.3751 -0.65117,-2.50689 -1.4425,-4.9696 -2.26668,-7.42423 -0.82893,-2.5443 -1.70678,-5.11021 -3.02059,-7.44981 -1.01658,-1.81819 -1.96202,-3.67641 -3.04592,-5.45604 -0.89926,-1.37586 -1.71857,-2.81671 -2.84673,-4.02648 -0.95074,-1.17508 -1.7666,-2.44202 -2.70041,-3.62797 -1.09082,-1.29421 -2.30912,-2.48176 -3.30145,-3.85946 -1.18927,-1.60456 -2.35767,-3.22458 -3.72762,-4.68484 -1.36876,-1.63766 -2.57388,-3.40534 -4.06678,-4.93847 -1.66911,-1.76585 -3.34744,-3.5223 -5.0182,-5.2868 -1.52941,-1.68641 -3.01538,-3.42061 -4.24461,-5.34329 -0.80057,-1.17516 -1.51713,-2.41337 -2.50149,-3.45042 -0.93497,-1.019 -1.79701,-2.10778 -2.85105,-3.01257 -1.56214,-1.43143 -3.08734,-2.89041 -4.45671,-4.51299 -1.67843,-1.67321 -3.37181,-3.33126 -5.0863,-4.96757 -1.59604,-1.52291 -3.16714,-3.08042 -5.03524,-4.27727 -2.28188,-1.5305 -4.58646,-3.04042 -7.01501,-4.33019 -3.4277,-1.56115 -7.06291,-2.47236 -10.70789,-3.38886 -5.0696,-1.4237 -10.08772,-3.05758 -15.23492,-4.18672 -6.58329,-1.29297 -13.27698,-1.96325 -19.96804,-2.38632 -2.1825,-0.12245 -3.32176,-0.23546 -5.42341,-0.19073 -3.36752,0.0717 -6.72553,0.49423 -10.08895,0.64172 -4.53554,0.3165 -9.07948,0.45457 -13.6076,0.84939 -1.85902,0.18275 -3.72302,0.2002 -5.58539,0.33592 -1.65097,0.14942 -3.29432,0.43926 -4.95542,0.41996 -1.29952,0.002 -2.59908,0.0133 -3.89858,-2e-4 -1.28617,-0.019 -2.5736,-0.0563 -3.8522,-0.20835 -1.95653,-0.23631 -3.90215,-0.58108 -5.87461,-0.66451 -2.98322,-0.26154 -5.9525,-0.67417 -8.94363,-0.83936 -2.63373,-0.14098 -5.27054,-0.14151 -7.89793,0.1305 -1.86079,0.23051 -3.64264,0.69921 -5.43023,1.25961 -1.70695,0.44617 -3.37369,0.99412 -4.9713,1.75395 -0.44809,0.20683 -0.90281,0.39918 -1.35005,0.60785 -0.1925,0.0898 -0.75331,0.39221 -0.57023,0.28451 12.69819,-7.46959 8.83651,-5.32364 6.31153,-3.63166 -0.96075,0.9495 -2.13043,1.65213 -3.16622,2.5178 -1.04475,0.72942 -2.09961,1.45302 -3.04154,2.31486 -1.12309,0.78818 -2.14402,1.73358 -3.20119,2.60499 -1.2265,0.91976 -2.30029,2.03073 -3.56997,2.89876 -0.9266,0.81324 -2.0228,1.43865 -2.66641,2.54039 -2.34102,3.2368 -6.22497,5.86724 -10.13678,6.46681 -1.13467,0.0504 -2.23331,-0.23861 -3.24677,-0.74845 -1.04944,-0.53978 -2.1365,-0.99443 -3.20443,-1.4948 -1.3425,-0.64183 -2.72627,-1.25008 -3.79039,-2.32706 -1.14792,-1.09521 -2.38169,-2.09459 -3.60654,-3.10161 -1.27858,-1.13681 -2.62567,-2.16716 -3.97761,-3.21427 -1.22996,-1.00505 -2.48942,-1.96252 -3.79394,-2.86843 -1.59,-1.26275 -3.20099,-2.49793 -4.71501,-3.85404 -1.60932,-1.30463 -3.24304,-2.57868 -4.84366,-3.8942 -0.98679,-0.82218 -1.97995,-1.64287 -3.18027,-2.13843 -2.04176,-0.93472 -4.19442,-1.60808 -6.34595,-2.23939 -1.92635,-0.53756 -3.82765,-0.78958 -5.83293,-0.59103 -2.40724,0.10298 -4.80706,0.30222 -7.2052,0.53353 -2.74215,0.18093 -5.49936,0.22307 -8.21498,0.68935 -2.79104,0.29635 -5.59634,0.46155 -8.37837,0.84983 -2.50492,0.26527 -5.00972,0.60761 -7.46397,1.18338 -1.79643,0.46712 -3.59282,0.92784 -5.41409,1.29103 -5.20548,1.16154 -10.47648,1.97435 -15.77818,2.55746 -8.54959,1.10331 -17.1664,1.9569 -25.60098,3.76556 -2.13762,0.60332 -4.27046,1.22559 -6.42284,1.77388 -5.06114,1.32219 -10.1524,2.5327 -15.25243,3.6943 -4.89418,1.06334 -9.81237,2.02398 -14.65617,3.30707 -3.09852,0.81073 -6.16289,1.72655 -9.24933,2.57608 -3.12105,0.75101 -6.23891,1.51074 -9.35179,2.29486 -2.55166,0.64399 -5.12241,1.17566 -7.73122,1.53615 -2.34164,0.45544 -4.64829,1.0439 -6.92377,1.76104 -2.62239,0.74101 -5.23693,1.51993 -7.80938,2.42021 -3.55921,1.28457 -7.09499,2.66684 -10.45949,4.40766 -3.58944,1.90953 -1.23811,0.67874 5.33488,-3.15941 0.32192,-0.18797 -0.65602,0.35488 -0.97492,0.54794 -0.89713,0.54313 -1.76083,1.14668 -2.64957,1.70349 -1.73407,1.10878 -3.331,2.4129 -5.07236,3.51315 -1.47013,0.99325 -2.94334,2.03409 -4.24662,3.23513 -1.00718,0.97076 -2.02299,1.9328 -3.0782,2.8516 -1.11806,1.0338 -1.96656,2.29837 -2.95305,3.45146 -1.07002,1.30346 -2.12291,2.63456 -2.92058,4.12586 -0.93221,1.19764 -1.66488,2.48518 -2.36223,3.82591 -0.72091,1.45484 -1.1968,3.02864 -1.95012,4.47233 -0.92836,1.65773 -1.68442,3.39848 -2.54888,5.08922 -1.02607,2.02546 -1.86805,4.13249 -2.84127,6.18219 -0.83934,1.59654 -1.47104,3.30045 -2.4249,4.84158 -0.95825,1.61011 -1.84741,3.25761 -2.91459,4.79786 -0.93422,1.34759 -1.74235,2.78011 -2.62079,4.16175 -0.89984,1.41902 -1.79206,2.85085 -2.5683,4.34106 -1.10177,1.84557 -2.20723,3.68729 -3.51097,5.40183 -0.0519,0.0668 -1.20834,1.56316 -1.30527,1.66803 -2.69871,2.91955 -6.48023,5.2009 -10.42441,5.81287 -2.16875,0.27372 -4.33774,0.50052 -6.52608,0.54328 -2.81654,0.18115 -5.62942,0.42983 -8.45431,0.42703 -2.31956,0.0932 -4.68849,0.14684 -6.92558,0.82809 -1.07373,0.35062 -2.06108,0.88329 -3.12895,1.25047 -1.26911,0.44326 -2.45234,1.07628 -3.7196,1.52596 -1.44904,0.5381 -2.89403,1.0846 -4.25332,1.82927 -0.58425,0.29451 -0.67379,0.33362 -1.24834,0.64736 -0.22039,0.12035 -0.87457,0.49388 -0.65777,0.36718 12.69082,-7.41721 8.03456,-4.88183 5.45067,-3.04024 -1.99324,1.27471 -4.08192,2.39434 -6.04115,3.72554 -1.89675,1.22402 -3.81543,2.41258 -5.72339,3.61826 -2.05222,1.27596 -4.16545,2.44858 -6.05515,3.97096 -1.55851,1.07853 -2.97307,2.31802 -4.4158,3.54062 -1.03037,0.96623 -2.01605,1.96585 -3.05523,2.91549 -0.72893,0.89525 -1.7034,1.5752 -2.31532,2.57762 -1.09846,1.2867 -2.06475,2.69875 -2.98463,4.11785 -0.84272,1.2145 -1.62737,2.46071 -2.47257,3.67485 -0.73527,1.14568 -1.38765,2.36544 -1.95078,3.59853 -0.50067,0.77385 -0.85121,1.58506 -1.22336,2.42436 -0.22135,1.0767 -0.43936,2.1099 -0.28938,3.22194 0.0448,1.06367 0.11194,2.13136 0.38002,3.1666 0.27953,1.15074 0.3252,2.31597 0.52613,3.48175 0.26676,1.27342 0.55329,2.53353 0.67902,3.83195 0.2131,1.37436 0.24391,2.74293 0.20819,4.13368 4.3e-4,1.21266 0.001,2.42532 0.004,3.63798 0.002,1.21567 0.008,2.43138 -0.002,3.64703 -0.0179,1.2394 -0.0429,2.48343 -0.23738,3.71034 -0.22324,1.23334 -0.62074,2.41747 -0.82295,3.65431 -0.29566,1.20429 -0.46411,2.42247 -0.75158,3.62952 -0.30226,1.17412 -0.33599,2.40678 -0.66589,3.57981 -0.0722,1.23397 -0.19663,2.46468 -0.47354,3.67195 -0.23756,1.19898 -0.13266,2.44307 -0.38276,3.64566 -0.20287,1.18947 -0.41987,2.35351 -0.31239,3.56945 0.002,1.20237 10e-4,2.4061 0.0817,3.60635 0.10476,1.22396 0.30289,2.43194 0.63796,3.61597 0.17724,1.16555 0.50763,2.26186 1.26539,3.19439 0.58355,0.79277 1.31056,1.41348 2.0995,1.9977 1.14725,0.7975 2.36307,1.48211 3.51744,2.2683 1.62539,1.16037 3.34257,2.2087 4.75471,3.63877 1.40888,1.40905 2.72976,3.01353 2.69941,5.11559 -0.11276,1.46577 -0.29892,2.92731 -0.89425,4.2878 -0.43308,1.22226 -1.04433,2.37785 -1.54794,3.57251 -0.52541,1.28273 -1.05356,2.58217 -1.77929,3.76618 -0.73212,1.35169 -1.49873,2.68477 -2.44924,3.89913 -0.8542,1.00098 -1.78809,1.92041 -2.75649,2.80351 -0.82723,0.63388 -1.50071,1.47339 -2.48423,1.89267 -0.83288,0.64679 -1.58637,1.39512 -2.53045,1.89638 -1.23104,1.01491 -2.32701,2.19474 -3.66872,3.07957 -1.24869,1.08369 -2.49557,2.16 -3.481156,3.50265 -0.59703,0.75723 -1.15632,1.47342 -1.45048,2.41119 -0.48961,0.808 -0.69236,1.78428 -0.91085,2.69382 -0.29667,1.00326 -0.39175,2.01478 -0.58276,3.0443 -0.26466,1.12186 -0.24869,2.23853 -0.22186,3.39052 -0.002,1.2077 -0.006,2.4157 0.0289,3.623 0.0473,1.183 0.12557,2.3687 0.39707,3.5252 0.24602,1.0701 0.3624,2.1532 0.62964,3.218 0.337,1.1502 0.47948,2.3311 0.81013,3.4842 0.32626,1.1875 0.54034,2.414 0.79545,3.6172 0.21558,1.0824 0.57916,2.1199 0.852466,3.1872 0.35961,1.0517 0.57207,2.1396 0.99621,3.1699 0.28375,0.919 0.80889,1.7218 1.2431,2.5742 0.51186,0.8787 0.88447,1.8302 1.42071,2.697 0.38605,0.9824 0.66223,2.0058 1.19016,2.9272 0.36945,0.8722 0.65459,1.7805 1.2145,2.5576 0.50621,0.9719 1.18846,1.8411 1.72336,2.7982 0.6406,1.0167 1.18199,2.0946 1.82074,3.1135 0.65084,1.1047 1.16854,2.2835 1.83762,3.3795 0.6538,1.0023 1.36178,1.9563 2.1307,2.8742 0.82574,0.9337 1.66642,1.8534 2.45633,2.8175 0.83695,0.9021 1.58392,1.8808 2.36933,2.8274 0.67317,0.8472 1.33549,1.7053 2.04185,2.524 0.80034,0.8453 1.65062,1.6437 2.38138,2.5526 0.71364,0.9687 1.34855,1.9788 2.00618,2.9861 0.77685,1.0865 1.49883,2.2171 2.54029,3.0817 0.95403,0.8261 1.98175,1.5724 3.10893,2.1463 1.07775,0.5205 2.21587,0.8642 3.33446,1.2835 1.10922,0.4315 2.14503,1.0234 3.28055,1.375 1.44873,0.338 2.90717,0.6566 4.40224,0.685 1.46552,0 2.93175,-0.01 4.39635,0.052 1.27633,0.073 2.5483,0.2197 3.77722,0.5909 1.1897,0.3313 2.4002,0.5832 3.57057,0.984 1.09101,0.3389 2.13334,0.8121 3.13035,1.37 0.98114,0.5007 2.01145,0.9098 2.91688,1.5495 0.93937,0.5745 1.78393,1.2785 2.64081,1.9678 0.87053,0.6256 1.75094,1.2361 2.60271,1.8875 0.95225,0.6106 1.95987,1.0937 2.97154,1.5984 1.10453,0.5054 2.26375,0.8262 3.44369,1.1079 1.24371,0.2595 2.51174,0.4614 3.78581,0.4282 1.86634,0.01 3.73296,0.013 5.59888,-0.036 1.8956,-0.065 3.80655,-0.1313 5.66157,-0.5636 1.46171,-0.3222 2.95274,-0.4954 4.40591,-0.8632 1.53751,-0.2856 3.08013,-0.5105 4.64637,-0.5518 2.26666,-0.178 4.53313,-0.4456 6.81033,-0.3983 2.77155,0 5.54311,0.01 8.31466,0.01 3.28464,0.01 6.56932,0 9.85391,0.015 2.2587,0.027 4.53011,0.036 6.76452,0.4106 1.6249,0.2924 3.25402,0.5667 4.86648,0.921 2.00397,0.4178 4.00826,0.8317 6.00844,1.2682 2.60299,0.4224 5.21431,0.785 7.84665,0.9687 2.4626,0.1346 4.93392,0.1175 7.39107,0.3589 3.02537,0.2877 6.04253,0.6653 9.08272,0.7716 3.23186,0.1827 6.46477,0.1784 9.69818,0.3164 2.16853,0.132 4.32967,0.4262 6.50442,0.408 1.59362,0 3.18718,0 4.78078,0.01 2.6918,0 5.385,-0.03 8.07185,-0.2098 3.48931,-0.2596 6.99288,-0.6043 10.38461,-1.5044 0,0 -7.12405,5.4715 -7.12405,5.4715 z"
       inkscape:connector-curvature="0" />
    <path
       style="fill:#ff0000;fill-opacity:0"
       id="path3053"
       d="m 293.58409,428.7034 c -2.75342,-1.1761 -5.67956,-1.8621 -8.54439,-2.7049 -1.99867,-0.5273 -4.01914,-0.9855 -6.04421,-1.4041 -1.52724,-0.2213 -3.0532,-0.3499 -4.54849,-0.7514 -1.57232,-0.3114 -3.0877,-0.8328 -4.66043,-1.141 -1.69669,-0.2642 -3.42313,-0.246 -5.1359,-0.2637 -1.88,-0.01 -3.75997,0 -5.63999,0 -2.17232,0 -4.34462,0 -6.51694,0.01 -1.82587,-0.1065 -3.62403,0.2099 -5.43055,0.4154 -1.48664,0.2077 -2.94773,0.5385 -4.44947,0.6718 -2.24511,0.3324 -4.47067,0.7588 -6.7259,1.027 -1.82141,0.2122 -3.65321,0.297 -5.48552,0.3289 -1.30511,0.013 -2.61037,0.011 -3.91547,0 -3.07248,-0.086 -6.08962,-0.7932 -9.13519,-1.1836 -3.73824,-0.479 -7.45398,-1.114 -11.19797,-1.5481 -2.21567,-0.2487 -4.44465,-0.3062 -6.67198,-0.326 -4.27311,-0.3958 -8.56541,-0.4927 -12.85345,-0.5817 -5.3768,0.01 -10.74531,-0.1229 -16.11621,-0.3564 -2.70925,-0.1292 -5.42002,-0.216 -8.13203,-0.2533 -3.00666,0.01 -6.00463,-0.052 -9.00542,-0.2373 -2.94233,-0.192 -5.88895,-0.3026 -8.83683,-0.3549 -1.75465,-0.022 -3.50948,-0.026 -5.26424,-0.023 -1.43514,0.1234 -2.81739,-0.092 -4.22508,-0.3219 -1.66463,-0.5095 -3.41344,-0.5599 -5.1088,-0.8943 -1.74376,-0.276 -3.35719,-0.8875 -4.93102,-1.6629 -1.72841,-0.892 -3.44642,-1.8004 -5.03802,-2.9223 -1.2548,-0.9617 -2.31695,-2.1579 -3.39351,-3.311 -0.82503,-0.6921 -1.48225,-1.5566 -2.27881,-2.2749 -1.01312,-1.1162 -2.03435,-2.2245 -3.07509,-3.315 -1.18244,-1.3469 -2.27983,-2.7675 -3.45958,-4.1152 -0.86841,-1.1674 -1.85269,-2.2399 -2.75792,-3.3766 -1.16042,-1.41 -2.31122,-2.8218 -3.38159,-4.3021 -1.50083,-2.0726 -3.062106,-4.099 -4.632496,-6.1192 -1.47651,-1.7124 -2.71262,-3.6046 -3.90989,-5.5163 -0.78585,-1.233 -1.44693,-2.5247 -2.00549,-3.8753 -0.63177,-1.3623 -1.01925,-2.8181 -1.48679,-4.2415 -0.61291,-1.6919 -0.83874,-3.4748 -0.97023,-5.2586 -0.16858,-2.0056 -0.0765,-3.9957 0.22063,-5.9824 0.32657,-2.1106 0.72489,-4.2036 1.2942,-6.2624 0.57121,-2.0484 1.53555,-3.9431 2.52249,-5.8148 1.39168,-2.631 3.05297,-5.1014 4.69534,-7.5789 1.29325,-1.8409 2.49858,-3.73801 3.819386,-5.55914 0.99898,-1.37206 2.00904,-2.7352 2.98559,-4.12357 0.88376,-1.30798 1.71007,-2.65501 2.50474,-4.01878 0.55219,-0.9398 1.08148,-1.89867 1.53251,-2.89173 0.53899,-1.25094 1.04619,-2.51531 1.58276,-3.76732 0.62087,-1.42228 1.08675,-2.90877 1.5798,-4.37929 0.45125,-1.54071 0.84856,-3.10012 1.11683,-4.68363 0.24464,-1.42004 0.21505,-2.86424 0.34432,-4.29407 0.19403,-1.15943 0.44801,-2.2954 0.19263,-3.46166 -0.31964,-1.15901 -0.76718,-2.26834 -1.21082,-3.3822 -0.30122,-0.64416 -0.56014,-1.30438 -0.80479,-1.97146 0,0 7.87456,-4.36028 7.87456,-4.36028 l 0,0 c 0.23159,0.66082 0.48012,1.31385 0.79147,1.94245 0.45989,1.14864 0.94076,2.28679 1.28378,3.47907 0.34992,1.26346 0.25835,2.50014 -0.0502,3.76791 -0.24442,1.42626 -0.0951,2.89866 -0.35655,4.32871 -0.23811,1.62921 -0.62344,3.22367 -1.05335,4.81217 -0.47697,1.49727 -0.97956,2.99163 -1.52637,4.46173 -0.58402,1.22759 -1.07283,2.50491 -1.55129,3.77137 -0.49733,1.00459 -0.93993,2.02501 -1.50705,2.99505 -0.88958,1.32568 -1.6128,2.7596 -2.52005,4.08045 -0.97937,1.38107 -1.92916,2.78223 -2.96739,4.12045 -1.30578,1.85907 -2.64957,3.68807 -3.92002,5.57429 -1.64883,2.43428 -3.28991,4.88108 -4.68398,7.47278 -0.969176,1.8248 -1.969346,3.6444 -2.571246,5.6325 -0.6014,2.0277 -1.08047,4.0788 -1.35429,6.1799 -0.3609,1.9124 -0.44383,3.8431 -0.29861,5.7851 0.10935,1.7106 0.28251,3.427 0.87192,5.0504 0.48247,1.3975 0.84702,2.8396 1.47975,4.1797 0.53077,1.3087 1.159846,2.5607 1.898796,3.7649 1.16022,1.8952 2.36406,3.7679 3.80986,5.4631 1.58368,2.0227 3.14042,4.0661 4.68685,6.1174 1.08272,1.4531 2.2238,2.857 3.38138,4.2509 0.92343,1.1132 1.89634,2.1855 2.75167,3.3544 1.13718,1.3627 2.23673,2.7578 3.42699,4.0764 1.03368,1.0799 2.04261,2.1834 3.08755,3.2522 0.779,0.7626 1.49648,1.5868 2.29052,2.3354 1.03303,1.107 2.03445,2.2741 3.2683,3.1629 1.56973,1.0698 3.24645,1.971 4.95359,2.8015 1.5386,0.6986 3.12766,1.2057 4.80454,1.4599 1.71183,0.269 3.43211,0.4778 5.12394,0.8655 1.36857,0.2168 2.73487,0.2652 4.12075,0.2206 1.7488,0 3.498,0 5.24597,0.064 2.93044,0.099 5.85848,0.2498 8.78522,0.4272 3.02019,0.163 6.03856,0.1579 9.06252,0.1525 2.67549,0.06 5.34734,0.211 8.01866,0.3681 5.33115,0.2827 10.6638,0.3843 16.00237,0.406 4.36145,0.066 8.72136,0.1552 13.07628,0.4152 2.23323,0.04 4.46473,0.1364 6.6802,0.4428 3.71503,0.5037 7.41023,1.1421 11.13212,1.5979 3.06283,0.3963 6.11983,1.0451 9.21976,0.985 1.30248,-0.01 2.6051,0.01 3.90747,-0.017 1.79531,-0.043 3.59016,-0.1372 5.37289,-0.3636 2.26854,-0.3065 4.51244,-0.7577 6.78287,-1.051 1.48753,-0.1966 2.95037,-0.5387 4.44589,-0.6732 1.81709,-0.2073 3.63324,-0.4058 5.46649,-0.3159 2.1736,0.01 4.34719,0.01 6.52078,-0.01 1.87977,-0.01 3.75958,-0.013 5.63927,0.013 1.76297,0.024 3.54729,0.01 5.27876,0.3838 1.55788,0.3692 3.08726,0.8504 4.65856,1.1662 1.50513,0.315 3.03889,0.4095 4.5415,0.7361 2.01098,0.4699 4.03336,0.9049 6.01093,1.5028 2.89449,0.8545 5.81064,1.6475 8.63928,2.7077 0,0 -7.44438,5.0217 -7.44438,5.0217 z"
       inkscape:connector-curvature="0" />
    <path
       style="fill:none;stroke:#000000;stroke-width:4.32989979;stroke-linecap:round;stroke-linejoin:round;stroke-miterlimit:4;stroke-opacity:1;stroke-dasharray:none;marker-start:none"
       d="m 301.38755,426.3787 c -48.69556,-2.4933 -98.78441,-4.5221 -154.28406,-4.7474 -64.022266,-26.7538 -73.098166,-67.5637 -38.81142,-119.46636 -32.106246,-75.499 1.78556,-105.92616 63.06857,-117.64714 16.05026,-24.96836 2.74781,-79.14444 110.37,-77.62286 55.42514,-42.93937 103.39104,-16.25923 152.21357,2.42572 232.18274,-97.30826 300.15682,225.95713 77.62286,192.84428 l 0,-0.60643"
       id="path3057"
       inkscape:connector-curvature="0"
       sodipodi:nodetypes="cccccccc" />
    <path
       style="fill:none;stroke:#000000;stroke-width:3.8204999;stroke-linecap:round;stroke-linejoin:round;stroke-miterlimit:4;stroke-opacity:1;stroke-dasharray:none"
       d="m 440.71284,208.28914 c 10.52461,54.2499 29.27477,103.93004 80.61624,135.50386 C 651.5764,465.2475 612.1292,523.0666 644.82629,607.9398 614.12955,532.6368 599.42917,446.6695 523.90194,401.2535 464.98267,377.2302 457.61127,317.93729 439.85522,265.74965"
       id="path3059"
       inkscape:connector-curvature="0"
       sodipodi:nodetypes="ccccc" />
    <path
       style="fill:none;stroke:#000000;stroke-width:3.8204999;stroke-linecap:round;stroke-linejoin:round;stroke-miterlimit:4;stroke-opacity:1;stroke-dasharray:none"
       d="m 219.44701,206.5739 129.50055,3.43048 -2.57286,50.59955 -127.78531,-5.14571 z"
       id="path3061"
       inkscape:connector-curvature="0" />
    <path
       style="fill:none;stroke:#000000;stroke-width:3.8204999;stroke-linecap:round;stroke-linejoin:round;stroke-miterlimit:4;stroke-opacity:1;stroke-dasharray:none"
       d="m 170.5627,293.19348 78.901,0.85762 1.71524,52.3148 -80.61624,-1.7153 z"
       id="path3063"
       inkscape:connector-curvature="0" />
    <path
       style="fill:none;stroke:#000000;stroke-width:3.8204999;stroke-linecap:round;stroke-linejoin:round;stroke-miterlimit:4;stroke-opacity:1;stroke-dasharray:none"
       d="m 301.77849,320.6373 82.33147,1.71524 -0.85762,48.88426 -81.47385,-0.8576 z"
       id="path3065"
       inkscape:connector-curvature="0" />
    <path
       style="fill:none;stroke:#000000;stroke-width:3.8204999;stroke-linecap:round;stroke-linejoin:round;stroke-miterlimit:4;stroke-opacity:1;stroke-dasharray:none"
       d="m 233.16893,293.19348 c 2.31521,-14.69398 10.85319,-27.61004 29.15906,-37.73526"
       id="path3067"
       inkscape:connector-curvature="0"
       sodipodi:nodetypes="cc" />
    <text
       xml:space="preserve"
       style="font-size:61.12799835px;font-style:italic;font-variant:normal;font-weight:normal;font-stretch:normal;text-align:start;line-height:125%;letter-spacing:0px;word-spacing:0px;writing-mode:lr-tb;text-anchor:start;fill:#000000;fill-opacity:1;stroke:none;font-family:URW Bookman L;-inkscape-font-specification:URW Bookman L Italic"
       x="307.80707"
       y="468.32642"
       id="text3069"
       sodipodi:linespacing="125%"><tspan
         sodipodi:role="line"
         id="tspan3071"
         x="307.80707"
         y="468.32642">Orgpad</tspan></text>
  </g>
</svg>
